<?xml version="1.0" encoding="UTF-8" standalone="no"?>
<!-- Created with Inkscape (http://www.inkscape.org/) -->

<svg
   xmlns:dc="http://purl.org/dc/elements/1.1/"
   xmlns:cc="http://creativecommons.org/ns#"
   xmlns:rdf="http://www.w3.org/1999/02/22-rdf-syntax-ns#"
   xmlns:svg="http://www.w3.org/2000/svg"
   xmlns="http://www.w3.org/2000/svg"
   xmlns:xlink="http://www.w3.org/1999/xlink"
   xmlns:sodipodi="http://sodipodi.sourceforge.net/DTD/sodipodi-0.dtd"
   xmlns:inkscape="http://www.inkscape.org/namespaces/inkscape"
   width="22"
   height="22"
   id="svg2"
   version="1.1"
   inkscape:version="0.48.3.1 r9886"
   inkscape:export-filename="/home/ochosi/sun_22.png"
   inkscape:export-xdpi="90"
   inkscape:export-ydpi="90"
   sodipodi:docname="sun_alt.svg">
  <defs
     id="defs4">
    <linearGradient
       id="linearGradient3773">
      <stop
         style="stop-color:#fffd3f;stop-opacity:1;"
         offset="0"
         id="stop3775" />
      <stop
         id="stop3764"
         offset="0.5"
         style="stop-color:#fef632;stop-opacity:1;" />
      <stop
         style="stop-color:#f4d100;stop-opacity:1;"
         offset="1"
         id="stop3777" />
    </linearGradient>
    <radialGradient
       inkscape:collect="always"
       xlink:href="#linearGradient3773"
       id="radialGradient3779"
       cx="11"
       cy="13"
       fx="11"
       fy="13"
       r="7.5"
       gradientUnits="userSpaceOnUse" />
    <radialGradient
       inkscape:collect="always"
       xlink:href="#linearGradient3773"
       id="radialGradient3802"
       gradientUnits="userSpaceOnUse"
       cx="11"
       cy="13"
       fx="11"
       fy="13"
       r="7.5" />
  </defs>
  <sodipodi:namedview
     id="base"
     pagecolor="#ffffff"
     bordercolor="#666666"
     borderopacity="1.0"
     inkscape:pageopacity="0.0"
     inkscape:pageshadow="2"
     inkscape:zoom="7.919596"
     inkscape:cx="13.749214"
     inkscape:cy="10.908124"
     inkscape:document-units="px"
     inkscape:current-layer="layer1"
     showgrid="false"
     inkscape:window-width="836"
     inkscape:window-height="636"
     inkscape:window-x="116"
     inkscape:window-y="119"
     inkscape:window-maximized="0">
    <inkscape:grid
       type="xygrid"
       id="grid2985"
       empspacing="5"
       visible="true"
       enabled="true"
       snapvisiblegridlinesonly="true" />
  </sodipodi:namedview>
  <metadata
     id="metadata7">
    <rdf:RDF>
      <cc:Work
         rdf:about="">
        <dc:format>image/svg+xml</dc:format>
        <dc:type
           rdf:resource="http://purl.org/dc/dcmitype/StillImage" />
        <dc:title></dc:title>
      </cc:Work>
    </rdf:RDF>
  </metadata>
  <g
     inkscape:label="Layer 1"
     inkscape:groupmode="layer"
     id="layer1"
     transform="translate(0,-1030.3622)">
    <path
       sodipodi:type="arc"
       style="fill:url(#radialGradient3802);fill-opacity:1;fill-rule:nonzero;stroke:#ffb414;stroke-width:1;stroke-linecap:round;stroke-linejoin:miter;stroke-miterlimit:4;stroke-opacity:1;stroke-dasharray:none"
       id="path2987"
       sodipodi:cx="11"
       sodipodi:cy="13"
       sodipodi:rx="7"
       sodipodi:ry="7"
       d="m 18,13 c 0,3.865993 -3.134007,7 -7,7 -3.8659932,0 -7,-3.134007 -7,-7 0,-3.8659932 3.1340068,-7 7,-7 3.865993,0 7,3.1340068 7,7 z"
       transform="matrix(0.8,0,0,0.8,2.2,1030.9622)" />
    <path
       style="fill:none;stroke:#ffb414;stroke-width:2;stroke-linecap:butt;stroke-linejoin:miter;stroke-miterlimit:4;stroke-opacity:1;stroke-dasharray:none;opacity:0.95"
       d="m 1,1041.3622 3,0 0,0 0,0"
       id="path3757"
       inkscape:connector-curvature="0" />
    <path
       inkscape:connector-curvature="0"
       id="path3759"
       d="m 18,1041.3622 3,0 0,0 0,0"
       style="fill:none;stroke:#ffb414;stroke-width:2;stroke-linecap:butt;stroke-linejoin:miter;stroke-miterlimit:4;stroke-opacity:1;stroke-dasharray:none;opacity:0.95" />
    <path
       inkscape:connector-curvature="0"
       id="path3763"
       d="m 11,1030.7621 0,3.6001 0,0 0,0"
       style="opacity:0.94999999999999996;fill:none;stroke:#ffb414;stroke-width:2;stroke-linecap:butt;stroke-linejoin:miter;stroke-miterlimit:4;stroke-opacity:1;stroke-dasharray:none" />
    <path
       style="fill:none;stroke:#ffb414;stroke-width:2;stroke-linecap:butt;stroke-linejoin:miter;stroke-miterlimit:4;stroke-opacity:1;stroke-dasharray:none"
       d="m 2.7875597,1033.1804 3.1520376,3.2478 0,0 0,0"
       id="path3765"
       inkscape:connector-curvature="0" />
    <path
       style="fill:none;stroke:#ffb414;stroke-width:2;stroke-linecap:butt;stroke-linejoin:miter;stroke-miterlimit:4;stroke-opacity:1;stroke-dasharray:none"
       d="m 2.9492017,1049.4129 3.0963134,-3.0963 0,0 0,0"
       id="path3769"
       inkscape:connector-curvature="0" />
    <path
       inkscape:connector-curvature="0"
       id="path3771"
       d="m 16,1036.3622 2.1214,-2.1214 0,0 0,0"
       style="fill:none;stroke:#ffb414;stroke-width:2;stroke-linecap:butt;stroke-linejoin:miter;stroke-miterlimit:4;stroke-opacity:1;stroke-dasharray:none" />
    <path
       style="opacity:0.95;fill:none;stroke:#ffb414;stroke-width:1;stroke-linecap:butt;stroke-linejoin:miter;stroke-miterlimit:4;stroke-opacity:1;stroke-dasharray:none"
       d="m 7.3184049,1032.662 1.0497368,2.1682 0,0 0,0"
       id="path3770"
       inkscape:connector-curvature="0" />
    <path
       inkscape:connector-curvature="0"
       id="path3772"
       d="m 2.475576,1037.7701 1.959716,0.7908 0,0 0,0"
       style="opacity:0.94999999999999996;fill:none;stroke:#ffb414;stroke-width:1;stroke-linecap:butt;stroke-linejoin:miter;stroke-miterlimit:4;stroke-opacity:1;stroke-dasharray:none" />
    <path
       inkscape:connector-curvature="0"
       id="path3778"
       d="m 2.339795,1045.2564 2.168122,-1.0498 0,0 0,0"
       style="opacity:0.95;fill:none;stroke:#ffb414;stroke-width:1;stroke-linecap:butt;stroke-linejoin:miter;stroke-miterlimit:4;stroke-opacity:1;stroke-dasharray:none" />
    <path
       style="opacity:0.94999999999999996;fill:none;stroke:#ffb414;stroke-width:1;stroke-linecap:butt;stroke-linejoin:miter;stroke-miterlimit:4;stroke-opacity:1;stroke-dasharray:none"
       d="m 7.4478882,1049.3787 0.7907704,-1.4918 0,0 0,0"
       id="path3780"
       inkscape:connector-curvature="0" />
    <path
       inkscape:connector-curvature="0"
       id="path3782"
       d="m 14.404577,1049.4398 -0.4957,-1.614 0,0 0,0"
       style="opacity:0.95;fill:none;stroke:#ffb414;stroke-width:1;stroke-linecap:butt;stroke-linejoin:miter;stroke-miterlimit:4;stroke-opacity:1;stroke-dasharray:none" />
    <path
       inkscape:connector-curvature="0"
       id="path3784"
       d="m 14.968966,1032.6967 -1.119403,2.2251 0,0 0,0"
       style="opacity:0.95;fill:none;stroke:#ffb414;stroke-width:1;stroke-linecap:butt;stroke-linejoin:miter;stroke-miterlimit:4;stroke-opacity:1;stroke-dasharray:none" />
    <path
       style="opacity:0.95;fill:none;stroke:#ffb414;stroke-width:1;stroke-linecap:butt;stroke-linejoin:miter;stroke-miterlimit:4;stroke-opacity:1;stroke-dasharray:none"
       d="m 19.133302,1037.7887 -1.619393,0.8798 0,0 0,0"
       id="path3786"
       inkscape:connector-curvature="0" />
    <path
       style="fill:#e5e5e5;fill-opacity:1;stroke:#bcbcbc;stroke-width:0.9996801;stroke-miterlimit:4;stroke-opacity:1;stroke-dasharray:none"
       d="m 10.344967,1050.1502 3.722605,0 c 2.525883,0 4.654586,-2.2881 4.660472,-4.5115 0.006,-2.2807 -1.544962,-4.4889 -4.646136,-4.4889 -3.101174,0 -3.646484,2.7085 -3.646484,2.7085 -2.2694279,-0.7915 -4.0515689,1.0218 -3.9296849,3.0775 0.115697,1.9514 1.650474,3.2144 3.8392279,3.2144 z"
       id="path2985"
       inkscape:connector-curvature="0"
       sodipodi:nodetypes="scszcss" />
    <path
       sodipodi:nodetypes="czzc"
       inkscape:connector-curvature="0"
       id="path4343"
       d="m 15.846173,1046.684 c 0,0 -2.650281,2.0346 -2.322704,3.0902 0.327593,1.0558 1.639415,1.3944 2.508098,0.7495 0.868689,-0.6451 -0.185394,-3.8397 -0.185394,-3.8397 z"
       style="fill:#afe0f2;fill-opacity:1;stroke:#67c3e6;stroke-width:0.83313292;stroke-miterlimit:4;stroke-opacity:1;stroke-dasharray:none" />
    <path
       style="fill:#afe0f2;fill-opacity:1;stroke:#67c3e6;stroke-width:0.83313292;stroke-miterlimit:4;stroke-opacity:1;stroke-dasharray:none"
       d="m 10.067144,1047.7787 c 0,0 -2.6502809,2.0346 -2.3227039,3.0902 0.327593,1.0558 1.639415,1.3944 2.5080979,0.7495 0.868689,-0.6451 -0.185394,-3.8397 -0.185394,-3.8397 z"
       id="path3207"
       inkscape:connector-curvature="0"
       sodipodi:nodetypes="czzc" />
  </g>
</svg>
