<?xml version="1.0" encoding="UTF-8" standalone="no"?>
<!-- Created with Inkscape (http://www.inkscape.org/) -->

<svg
   xmlns:dc="http://purl.org/dc/elements/1.1/"
   xmlns:cc="http://creativecommons.org/ns#"
   xmlns:rdf="http://www.w3.org/1999/02/22-rdf-syntax-ns#"
   xmlns:svg="http://www.w3.org/2000/svg"
   xmlns="http://www.w3.org/2000/svg"
   xmlns:xlink="http://www.w3.org/1999/xlink"
   xmlns:sodipodi="http://sodipodi.sourceforge.net/DTD/sodipodi-0.dtd"
   xmlns:inkscape="http://www.inkscape.org/namespaces/inkscape"
   width="22"
   height="22"
   id="svg2"
   version="1.1"
   inkscape:version="0.48.3.1 r9886"
   inkscape:export-filename="/home/ochosi/sun_22.png"
   inkscape:export-xdpi="90"
   inkscape:export-ydpi="90"
   sodipodi:docname="nodata.svg">
  <defs
     id="defs4">
    <linearGradient
       id="linearGradient3773">
      <stop
         style="stop-color:#fff676;stop-opacity:1;"
         offset="0"
         id="stop3775" />
      <stop
         style="stop-color:#fded00;stop-opacity:1;"
         offset="1"
         id="stop3777" />
    </linearGradient>
    <radialGradient
       inkscape:collect="always"
       xlink:href="#linearGradient3773"
       id="radialGradient3779"
       cx="11"
       cy="13"
       fx="11"
       fy="13"
       r="7.5"
       gradientUnits="userSpaceOnUse" />
    <radialGradient
       inkscape:collect="always"
       xlink:href="#linearGradient3773"
       id="radialGradient4659"
       gradientUnits="userSpaceOnUse"
       cx="11"
       cy="13"
       fx="11"
       fy="13"
       r="7.5" />
    <linearGradient
       id="linearGradient3773-1">
      <stop
         style="stop-color:#fffd3f;stop-opacity:1;"
         offset="0"
         id="stop3775-7" />
      <stop
         id="stop3764"
         offset="0.5"
         style="stop-color:#fef632;stop-opacity:1;" />
      <stop
         style="stop-color:#f4d100;stop-opacity:1;"
         offset="1"
         id="stop3777-3" />
    </linearGradient>
  </defs>
  <sodipodi:namedview
     id="base"
     pagecolor="#ffffff"
     bordercolor="#666666"
     borderopacity="1.0"
     inkscape:pageopacity="0.0"
     inkscape:pageshadow="2"
     inkscape:zoom="22.4"
     inkscape:cx="9.1444805"
     inkscape:cy="11.785714"
     inkscape:document-units="px"
     inkscape:current-layer="layer1"
     showgrid="true"
     inkscape:window-width="1218"
     inkscape:window-height="843"
     inkscape:window-x="460"
     inkscape:window-y="155"
     inkscape:window-maximized="0">
    <inkscape:grid
       type="xygrid"
       id="grid2985"
       empspacing="5"
       visible="true"
       enabled="true"
       snapvisiblegridlinesonly="true" />
  </sodipodi:namedview>
  <metadata
     id="metadata7">
    <rdf:RDF>
      <cc:Work
         rdf:about="">
        <dc:format>image/svg+xml</dc:format>
        <dc:type
           rdf:resource="http://purl.org/dc/dcmitype/StillImage" />
        <dc:title />
      </cc:Work>
    </rdf:RDF>
  </metadata>
  <g
     inkscape:label="Layer 1"
     inkscape:groupmode="layer"
     id="layer1"
     transform="translate(0,-1030.3622)">
    <path
       sodipodi:type="arc"
       style="fill:#e5e5e5;fill-opacity:1;fill-rule:nonzero;stroke:#bcbcbc;stroke-width:0.83333332999999998;stroke-linecap:round;stroke-linejoin:miter;stroke-miterlimit:4;stroke-opacity:1;stroke-dasharray:none"
       id="path2987-0"
       sodipodi:cx="11"
       sodipodi:cy="13"
       sodipodi:rx="7"
       sodipodi:ry="7"
       d="m 18,13 c 0,3.865993 -3.134007,7 -7,7 -3.8659932,0 -7,-3.134007 -7,-7 0,-3.8659932 3.1340068,-7 7,-7 3.865993,0 7,3.1340068 7,7 z"
       transform="matrix(1.2,0,0,1.2,-2.2,1025.7622)" />
    <g
       style="font-size:20px;font-style:normal;font-variant:normal;font-weight:normal;font-stretch:normal;line-height:125%;letter-spacing:0px;word-spacing:0px;opacity:0.7;fill:#ffffff;fill-opacity:1;stroke:none;font-family:Lekton;-inkscape-font-specification:Lekton"
       id="text3799">
      <path
         d="m 9.6943359,1044.1622 0,-0.5058 c -1.8e-6,-0.2324 0.022785,-0.4421 0.068359,-0.6289 0.050128,-0.1914 0.1230449,-0.3714 0.21875,-0.5401 0.1002587,-0.1731 0.2278627,-0.3395 0.3828127,-0.499 0.154945,-0.1641 0.341794,-0.3327 0.560547,-0.5059 0.191403,-0.1503 0.353186,-0.2848 0.485351,-0.4033 0.132158,-0.1185 0.239254,-0.2347 0.321289,-0.3486 0.08203,-0.1185 0.141272,-0.2415 0.177735,-0.3691 0.03645,-0.1276 0.05468,-0.2758 0.05469,-0.4444 -4e-6,-0.2597 -0.08887,-0.4739 -0.266601,-0.6426 -0.173181,-0.1686 -0.439782,-0.2529 -0.799805,-0.2529 -0.314456,0 -0.653974,0.066 -1.0185547,0.1982 -0.3600277,0.1322 -0.7337253,0.294 -1.1210938,0.4854 l -0.6972656,-1.5107 c 0.1959631,-0.114 0.407877,-0.2211 0.6357422,-0.3213 0.2324208,-0.1048 0.4716784,-0.196 0.7177734,-0.2735 0.2506493,-0.082 0.5035787,-0.1458 0.7587895,-0.1914 0.255205,-0.045 0.505856,-0.068 0.751953,-0.068 0.46484,0 0.88411,0.057 1.257812,0.1709 0.373693,0.1093 0.690425,0.2711 0.950196,0.4853 0.25976,0.2142 0.458002,0.474 0.594726,0.7793 0.14127,0.3054 0.211908,0.654 0.211914,1.0459 -6e-6,0.2871 -0.03191,0.5446 -0.0957,0.7725 -0.06381,0.2233 -0.159511,0.4329 -0.287109,0.6289 -0.123053,0.1914 -0.280279,0.3782 -0.47168,0.5605 -0.186854,0.1778 -0.405604,0.3669 -0.65625,0.5674 -0.191411,0.1504 -0.348637,0.2826 -0.47168,0.3965 -0.118493,0.1094 -0.211918,0.2142 -0.280273,0.3144 -0.06836,0.1003 -0.116215,0.2051 -0.143555,0.3145 -0.02279,0.1048 -0.03418,0.2301 -0.03418,0.376 l 0,0.4101 -1.8046871,0 m -0.2255859,2.3379 c -1.6e-6,-0.2142 0.029621,-0.3942 0.088867,-0.54 0.0638,-0.1504 0.1503888,-0.2712 0.2597656,-0.3623 0.109373,-0.091 0.2369772,-0.1572 0.3828122,-0.1983 0.150388,-0.041 0.309894,-0.062 0.478516,-0.062 0.159502,0 0.309893,0.021 0.451172,0.062 0.14583,0.041 0.273434,0.1071 0.382812,0.1983 0.109372,0.091 0.19596,0.2119 0.259766,0.3623 0.0638,0.1458 0.0957,0.3258 0.0957,0.54 -4e-6,0.2051 -0.03191,0.3806 -0.0957,0.5264 -0.06381,0.1458 -0.150394,0.2666 -0.259766,0.3623 -0.109378,0.096 -0.236982,0.1641 -0.382812,0.2051 -0.141279,0.045 -0.29167,0.068 -0.451172,0.068 -0.168622,0 -0.328128,-0.023 -0.478516,-0.068 -0.145835,-0.041 -0.2734392,-0.1094 -0.3828122,-0.2051 -0.1093768,-0.096 -0.1959653,-0.2165 -0.2597656,-0.3623 -0.059246,-0.1458 -0.088869,-0.3213 -0.088867,-0.5264"
         style="font-size:14px;font-weight:bold;fill:#ffffff;font-family:Droid Sans;-inkscape-font-specification:Droid Sans Bold"
         id="path3001" />
    </g>
    <g
       style="font-size:20px;font-style:normal;font-variant:normal;font-weight:normal;font-stretch:normal;line-height:125%;letter-spacing:0px;word-spacing:0px;fill:#4d4d4d;fill-opacity:1;stroke:none;font-family:Lekton;-inkscape-font-specification:Lekton"
       id="text3772">
      <path
         d="m 9.6943359,1043.1624 0,-0.5059 c -1.8e-6,-0.2324 0.022785,-0.4421 0.068359,-0.6289 0.050128,-0.1914 0.1230449,-0.3714 0.21875,-0.5401 0.1002587,-0.1731 0.2278627,-0.3395 0.3828127,-0.499 0.154945,-0.164 0.341794,-0.3327 0.560547,-0.5058 0.191403,-0.1504 0.353186,-0.2849 0.485351,-0.4034 0.132158,-0.1184 0.239254,-0.2346 0.321289,-0.3486 0.08203,-0.1185 0.141272,-0.2415 0.177735,-0.3691 0.03645,-0.1276 0.05468,-0.2757 0.05469,-0.4444 -4e-6,-0.2597 -0.08887,-0.4739 -0.266601,-0.6425 -0.173181,-0.1687 -0.439782,-0.253 -0.799805,-0.253 -0.314456,0 -0.653974,0.066 -1.0185547,0.1983 -0.3600277,0.1321 -0.7337253,0.2939 -1.1210938,0.4853 l -0.6972656,-1.5107 c 0.1959631,-0.1139 0.407877,-0.221 0.6357422,-0.3213 0.2324208,-0.1048 0.4716784,-0.196 0.7177734,-0.2734 0.2506493,-0.082 0.5035787,-0.1459 0.7587895,-0.1915 0.255205,-0.045 0.505856,-0.068 0.751953,-0.068 0.46484,0 0.88411,0.057 1.257812,0.1709 0.373693,0.1094 0.690425,0.2712 0.950196,0.4853 0.25976,0.2142 0.458002,0.474 0.594726,0.7793 0.14127,0.3054 0.211908,0.654 0.211914,1.0459 -6e-6,0.2871 -0.03191,0.5446 -0.0957,0.7725 -0.06381,0.2233 -0.159511,0.4329 -0.287109,0.6289 -0.123053,0.1914 -0.280279,0.3783 -0.47168,0.5605 -0.186854,0.1778 -0.405604,0.3669 -0.65625,0.5674 -0.191411,0.1504 -0.348637,0.2826 -0.47168,0.3965 -0.118493,0.1094 -0.211918,0.2142 -0.280273,0.3145 -0.06836,0.1002 -0.116215,0.205 -0.143555,0.3144 -0.02279,0.1048 -0.03418,0.2302 -0.03418,0.376 l 0,0.4102 -1.8046871,0 m -0.2255859,2.3378 c -1.6e-6,-0.2141 0.029621,-0.3942 0.088867,-0.54 0.0638,-0.1504 0.1503888,-0.2712 0.2597656,-0.3623 0.109373,-0.091 0.2369772,-0.1572 0.3828122,-0.1982 0.150388,-0.041 0.309894,-0.062 0.478516,-0.062 0.159502,0 0.309893,0.021 0.451172,0.062 0.14583,0.041 0.273434,0.1071 0.382812,0.1982 0.109372,0.091 0.19596,0.2119 0.259766,0.3623 0.0638,0.1458 0.0957,0.3259 0.0957,0.54 -4e-6,0.2051 -0.03191,0.3806 -0.0957,0.5264 -0.06381,0.1458 -0.150394,0.2666 -0.259766,0.3623 -0.109378,0.096 -0.236982,0.1641 -0.382812,0.2051 -0.141279,0.046 -0.29167,0.068 -0.451172,0.068 -0.168622,0 -0.328128,-0.023 -0.478516,-0.068 -0.145835,-0.041 -0.2734392,-0.1094 -0.3828122,-0.2051 -0.1093768,-0.096 -0.1959653,-0.2165 -0.2597656,-0.3623 -0.059246,-0.1458 -0.088869,-0.3213 -0.088867,-0.5264"
         style="font-size:14px;font-weight:bold;fill:#4d4d4d;font-family:Droid Sans;-inkscape-font-specification:Droid Sans Bold"
         id="path2998" />
    </g>
  </g>
</svg>
