<?xml version="1.0" encoding="UTF-8" standalone="no"?>
<!-- Created with Inkscape (http://www.inkscape.org/) -->

<svg
   xmlns:dc="http://purl.org/dc/elements/1.1/"
   xmlns:cc="http://creativecommons.org/ns#"
   xmlns:rdf="http://www.w3.org/1999/02/22-rdf-syntax-ns#"
   xmlns:svg="http://www.w3.org/2000/svg"
   xmlns="http://www.w3.org/2000/svg"
   xmlns:sodipodi="http://sodipodi.sourceforge.net/DTD/sodipodi-0.dtd"
   xmlns:inkscape="http://www.inkscape.org/namespaces/inkscape"
   width="128"
   height="128"
   id="svg3771"
   version="1.1"
   inkscape:version="0.48.3.1 r9886"
   sodipodi:docname="partlycloud-night.svg">
  <defs
     id="defs3773" />
  <sodipodi:namedview
     id="base"
     pagecolor="#ffffff"
     bordercolor="#666666"
     borderopacity="1.0"
     inkscape:pageopacity="0.0"
     inkscape:pageshadow="2"
     inkscape:zoom="2.0798883"
     inkscape:cx="64"
     inkscape:cy="36.235506"
     inkscape:current-layer="layer1"
     showgrid="true"
     inkscape:grid-bbox="true"
     inkscape:document-units="px"
     inkscape:window-width="1233"
     inkscape:window-height="902"
     inkscape:window-x="1725"
     inkscape:window-y="73"
     inkscape:window-maximized="0">
    <inkscape:grid
       type="xygrid"
       id="grid4294"
       empspacing="5"
       visible="true"
       enabled="true"
       snapvisiblegridlinesonly="true" />
  </sodipodi:namedview>
  <metadata
     id="metadata3776">
    <rdf:RDF>
      <cc:Work
         rdf:about="">
        <dc:format>image/svg+xml</dc:format>
        <dc:type
           rdf:resource="http://purl.org/dc/dcmitype/StillImage" />
        <dc:title></dc:title>
      </cc:Work>
    </rdf:RDF>
  </metadata>
  <g
     id="layer1"
     inkscape:label="Layer 1"
     inkscape:groupmode="layer"
     transform="translate(0,80)">
    <path
       sodipodi:nodetypes="czzzczzc"
       inkscape:connector-curvature="0"
       id="path5249"
       d="m 67.472288,-60.475103 c 0,0 -31.302372,-1.342148 -46.085786,15.711867 C 6.603093,-27.709221 9.3028904,-6.4700908 15.31377,4.7740978 21.324651,16.018287 31.328381,28.764353 52.570787,28.495752 73.813191,28.227155 97.274856,1.4530932 97.274856,1.4530932 c 0,0 -16.302845,8.7427928 -33.351801,2.6683174 C 46.874107,-1.9530638 39.020228,-15.257882 42.967604,-32.036112 46.914986,-48.813855 67.472288,-60.475103 67.472288,-60.475103 z"
       style="fill:#ebeebf;fill-opacity:1;stroke:#cdcd7e;stroke-width:1;stroke-linecap:butt;stroke-linejoin:bevel;stroke-miterlimit:4;stroke-opacity:1;stroke-dasharray:none"
       inkscape:export-xdpi="90"
       inkscape:export-ydpi="90" />
    <path
       style="fill:#e5e5e5;fill-opacity:1;stroke:#bcbcbc;stroke-width:1;stroke-miterlimit:4;stroke-opacity:1;stroke-dasharray:none"
       d="m 75.109094,21.5 17.047995,0 c 11.567501,0 21.316081,-10.423132 21.343041,-20.551651 0.0273,-10.389453 -7.07528,-20.448561 -21.27739,-20.448561 -14.202096,0 -16.699391,12.337547 -16.699391,12.337547 C 65.13031,-10.767168 56.968843,-2.5073829 57.527014,6.857067 58.056863,15.746203 65.085509,21.5 75.109094,21.5 z"
       id="path2985"
       inkscape:connector-curvature="0"
       sodipodi:nodetypes="scszcss" />
  </g>
</svg>
