<?xml version="1.0" encoding="UTF-8" standalone="no"?>
<!-- Created with Inkscape (http://www.inkscape.org/) -->

<svg
   xmlns:dc="http://purl.org/dc/elements/1.1/"
   xmlns:cc="http://creativecommons.org/ns#"
   xmlns:rdf="http://www.w3.org/1999/02/22-rdf-syntax-ns#"
   xmlns:svg="http://www.w3.org/2000/svg"
   xmlns="http://www.w3.org/2000/svg"
   xmlns:sodipodi="http://sodipodi.sourceforge.net/DTD/sodipodi-0.dtd"
   xmlns:inkscape="http://www.inkscape.org/namespaces/inkscape"
   width="128"
   height="128"
   id="svg3771"
   version="1.1"
   inkscape:version="0.48.3.1 r9886"
   sodipodi:docname="lightrainthunder.svg">
  <defs
     id="defs3773" />
  <sodipodi:namedview
     id="base"
     pagecolor="#ffffff"
     bordercolor="#666666"
     borderopacity="1.0"
     inkscape:pageopacity="0.0"
     inkscape:pageshadow="2"
     inkscape:zoom="3.5"
     inkscape:cx="68.285714"
     inkscape:cy="11.794063"
     inkscape:current-layer="layer1"
     showgrid="true"
     inkscape:grid-bbox="true"
     inkscape:document-units="px"
     inkscape:window-width="1233"
     inkscape:window-height="902"
     inkscape:window-x="1779"
     inkscape:window-y="73"
     inkscape:window-maximized="0">
    <inkscape:grid
       type="xygrid"
       id="grid4294"
       empspacing="5"
       visible="true"
       enabled="true"
       snapvisiblegridlinesonly="true" />
  </sodipodi:namedview>
  <metadata
     id="metadata3776">
    <rdf:RDF>
      <cc:Work
         rdf:about="">
        <dc:format>image/svg+xml</dc:format>
        <dc:type
           rdf:resource="http://purl.org/dc/dcmitype/StillImage" />
        <dc:title></dc:title>
      </cc:Work>
    </rdf:RDF>
  </metadata>
  <g
     id="layer1"
     inkscape:label="Layer 1"
     inkscape:groupmode="layer"
     transform="translate(0,80)">
    <path
       style="fill:#e5e5e5;fill-opacity:1;stroke:#bcbcbc;stroke-width:1;stroke-miterlimit:4;stroke-opacity:1;stroke-dasharray:none"
       d="m 43.032507,21.5 34.400299,0 c 23.341494,0 43.012664,-21.100383 43.067044,-41.604359 0.0552,-21.032205 -14.27686,-41.395665 -42.93457,-41.395665 -28.657704,0 -33.696869,24.975887 -33.696869,24.975887 C 22.896812,-43.82102 6.4281965,-27.100075 7.5545008,-8.1428653 8.6236599,9.852128 22.806414,21.5 43.032507,21.5 z"
       id="path2985"
       inkscape:connector-curvature="0"
       sodipodi:nodetypes="scszcss" />
    <path
       sodipodi:nodetypes="czzc"
       inkscape:connector-curvature="0"
       id="path4343"
       d="m 22.665077,29.640879 c 0,0 -3.180352,2.441555 -2.787257,3.708294 0.393114,1.266858 1.967306,1.673184 3.00973,0.899173 1.042432,-0.774131 -0.222473,-4.607467 -0.222473,-4.607467 z"
       style="fill:#afe0f2;fill-opacity:1;stroke:#67c3e6;stroke-width:1;stroke-miterlimit:4;stroke-opacity:1;stroke-dasharray:none" />
    <path
       style="fill:#afe0f2;fill-opacity:1;stroke:#67c3e6;stroke-width:1;stroke-miterlimit:4;stroke-opacity:1;stroke-dasharray:none"
       d="m 23.31047,11.9229 c 0,0 -4.601693,3.906067 -4.032918,5.932626 0.568801,2.026754 2.846519,2.676805 4.354818,1.438522 1.508308,-1.238477 -0.3219,-7.371148 -0.3219,-7.371148 z"
       id="path3788"
       inkscape:connector-curvature="0"
       sodipodi:nodetypes="czzc" />
    <path
       sodipodi:nodetypes="czzc"
       inkscape:connector-curvature="0"
       id="path3790"
       d="m 32.855934,20.84291 c 0,0 -3.180352,2.441555 -2.787257,3.708294 0.393114,1.266858 1.967306,1.673184 3.00973,0.899173 1.042432,-0.774131 -0.222473,-4.607467 -0.222473,-4.607467 z"
       style="fill:#afe0f2;fill-opacity:1;stroke:#67c3e6;stroke-width:1;stroke-miterlimit:4;stroke-opacity:1;stroke-dasharray:none" />
    <path
       style="fill:#afe0f2;fill-opacity:1;stroke:#67c3e6;stroke-width:1;stroke-miterlimit:4;stroke-opacity:1;stroke-dasharray:none"
       d="m 99.467848,33.434644 c 0,0 -3.180352,2.441555 -2.787257,3.708294 0.393114,1.266858 1.967306,1.673184 3.00973,0.899173 1.042429,-0.774131 -0.222473,-4.607467 -0.222473,-4.607467 z"
       id="path3792"
       inkscape:connector-curvature="0"
       sodipodi:nodetypes="czzc" />
    <path
       sodipodi:nodetypes="czzc"
       inkscape:connector-curvature="0"
       id="path3794"
       d="m 88.050873,8.0337673 c 0,0 -3.180352,2.4415547 -2.787257,3.7082937 0.393114,1.266858 1.967306,1.673184 3.00973,0.899173 1.042432,-0.774131 -0.222473,-4.6074667 -0.222473,-4.6074667 z"
       style="fill:#afe0f2;fill-opacity:1;stroke:#67c3e6;stroke-width:1;stroke-miterlimit:4;stroke-opacity:1;stroke-dasharray:none" />
    <path
       style="fill:#ffff14;fill-opacity:1;stroke:#c1c138;stroke-width:1;stroke-linejoin:round;stroke-miterlimit:4;stroke-opacity:1;stroke-dasharray:none"
       d="M 65.082552,-19.500037 55.5,11.5 l 8.991958,0 -3.380283,32 20.026297,-44 -8.891522,0 11.253588,-19.000037 z"
       id="path3754"
       inkscape:connector-curvature="0"
       sodipodi:nodetypes="cccccccc" />
    <path
       sodipodi:nodetypes="czzc"
       inkscape:connector-curvature="0"
       id="path3776"
       d="m 101.22492,10.823116 c 0,0 -4.601692,3.906067 -4.032917,5.932626 0.568801,2.026754 2.846517,2.676805 4.354817,1.438522 1.50831,-1.238477 -0.3219,-7.371148 -0.3219,-7.371148 z"
       style="fill:#afe0f2;fill-opacity:1;stroke:#67c3e6;stroke-width:1;stroke-miterlimit:4;stroke-opacity:1;stroke-dasharray:none" />
    <path
       style="fill:#afe0f2;fill-opacity:1;stroke:#67c3e6;stroke-width:1;stroke-miterlimit:4;stroke-opacity:1;stroke-dasharray:none"
       d="m 82.303375,19.600059 c 0,0 -4.601689,3.906067 -4.032914,5.932626 0.568801,2.026754 2.846519,2.676805 4.354814,1.438522 1.50831,-1.238477 -0.3219,-7.371148 -0.3219,-7.371148 z"
       id="path3778"
       inkscape:connector-curvature="0"
       sodipodi:nodetypes="czzc" />
    <path
       sodipodi:nodetypes="czzc"
       inkscape:connector-curvature="0"
       id="path3782"
       d="m 42.301338,4.6498017 c 0,0 -4.601693,3.906067 -4.032918,5.9326263 0.568801,2.026754 2.846519,2.676805 4.354818,1.438522 1.508308,-1.238477 -0.3219,-7.3711483 -0.3219,-7.3711483 z"
       style="fill:#afe0f2;fill-opacity:1;stroke:#67c3e6;stroke-width:1;stroke-miterlimit:4;stroke-opacity:1;stroke-dasharray:none" />
    <path
       style="fill:#afe0f2;fill-opacity:1;stroke:#67c3e6;stroke-width:1;stroke-miterlimit:4;stroke-opacity:1;stroke-dasharray:none"
       d="m 48.766314,18.791937 c 0,0 -4.601693,3.906067 -4.032918,5.932627 0.568801,2.026754 2.846519,2.676805 4.354818,1.438522 1.508308,-1.238477 -0.3219,-7.371149 -0.3219,-7.371149 z"
       id="path3784"
       inkscape:connector-curvature="0"
       sodipodi:nodetypes="czzc" />
    <path
       style="fill:#afe0f2;fill-opacity:1;stroke:#67c3e6;stroke-width:1;stroke-miterlimit:4;stroke-opacity:1;stroke-dasharray:none"
       d="m 42.464067,31.459154 c 0,0 -3.180353,2.441555 -2.787258,3.708294 0.393114,1.266858 1.967306,1.673184 3.009731,0.899173 1.042432,-0.774131 -0.222473,-4.607467 -0.222473,-4.607467 z"
       id="path3786"
       inkscape:connector-curvature="0"
       sodipodi:nodetypes="czzc" />
    <path
       style="fill:#afe0f2;fill-opacity:1;stroke:#67c3e6;stroke-width:1;stroke-miterlimit:4;stroke-opacity:1;stroke-dasharray:none"
       d="m 76.001131,32.267276 c 0,0 -3.180352,2.441555 -2.787257,3.708294 0.393114,1.266858 1.967306,1.673184 3.00973,0.899173 1.042432,-0.774131 -0.222473,-4.607467 -0.222473,-4.607467 z"
       id="path3789"
       inkscape:connector-curvature="0"
       sodipodi:nodetypes="czzc" />
    <path
       sodipodi:nodetypes="czzc"
       inkscape:connector-curvature="0"
       id="path3791"
       d="m 92.10512,24.323986 c 0,0 -3.180352,2.441555 -2.787257,3.708294 0.393114,1.266858 1.967306,1.673184 3.00973,0.899173 1.042432,-0.774131 -0.222473,-4.607467 -0.222473,-4.607467 z"
       style="fill:#afe0f2;fill-opacity:1;stroke:#67c3e6;stroke-width:1;stroke-miterlimit:4;stroke-opacity:1;stroke-dasharray:none" />
  </g>
</svg>
