<?xml version="1.0" encoding="UTF-8" standalone="no"?>
<!-- Created with Inkscape (http://www.inkscape.org/) -->

<svg
   xmlns:dc="http://purl.org/dc/elements/1.1/"
   xmlns:cc="http://creativecommons.org/ns#"
   xmlns:rdf="http://www.w3.org/1999/02/22-rdf-syntax-ns#"
   xmlns:svg="http://www.w3.org/2000/svg"
   xmlns="http://www.w3.org/2000/svg"
   xmlns:xlink="http://www.w3.org/1999/xlink"
   xmlns:sodipodi="http://sodipodi.sourceforge.net/DTD/sodipodi-0.dtd"
   xmlns:inkscape="http://www.inkscape.org/namespaces/inkscape"
   width="128"
   height="128"
   id="svg3771"
   version="1.1"
   inkscape:version="0.48.3.1 r9886"
   sodipodi:docname="nodata.svg">
  <defs
     id="defs3773">
    <linearGradient
       inkscape:collect="always"
       xlink:href="#linearGradient3776"
       id="linearGradient3782"
       x1="7.4054031"
       y1="6.6096044"
       x2="7.4054031"
       y2="28.576584"
       gradientUnits="userSpaceOnUse" />
    <linearGradient
       id="linearGradient3776">
      <stop
         style="stop-color:#ffffff;stop-opacity:1;"
         offset="0"
         id="stop3778" />
      <stop
         style="stop-color:#dddddd;stop-opacity:0;"
         offset="1"
         id="stop3780" />
    </linearGradient>
    <linearGradient
       inkscape:collect="always"
       xlink:href="#linearGradient3776"
       id="linearGradient3864"
       x1="13.065571"
       y1="5.7968373"
       x2="12.411366"
       y2="20.189339"
       gradientUnits="userSpaceOnUse" />
  </defs>
  <sodipodi:namedview
     id="base"
     pagecolor="#ffffff"
     bordercolor="#666666"
     borderopacity="1.0"
     inkscape:pageopacity="0.0"
     inkscape:pageshadow="2"
     inkscape:zoom="2.0798883"
     inkscape:cx="64"
     inkscape:cy="37.505051"
     inkscape:current-layer="layer1"
     showgrid="true"
     inkscape:grid-bbox="true"
     inkscape:document-units="px"
     inkscape:window-width="1233"
     inkscape:window-height="902"
     inkscape:window-x="1725"
     inkscape:window-y="73"
     inkscape:window-maximized="0">
    <inkscape:grid
       type="xygrid"
       id="grid4294"
       empspacing="5"
       visible="true"
       enabled="true"
       snapvisiblegridlinesonly="true" />
  </sodipodi:namedview>
  <metadata
     id="metadata3776">
    <rdf:RDF>
      <cc:Work
         rdf:about="">
        <dc:format>image/svg+xml</dc:format>
        <dc:type
           rdf:resource="http://purl.org/dc/dcmitype/StillImage" />
        <dc:title />
      </cc:Work>
    </rdf:RDF>
  </metadata>
  <g
     id="layer1"
     inkscape:label="Layer 1"
     inkscape:groupmode="layer"
     transform="translate(0,80)">
    <path
       sodipodi:type="arc"
       style="fill:#e5e5e5;fill-opacity:1;fill-rule:nonzero;stroke:#bcbcbc;stroke-width:0.12844054;stroke-linecap:round;stroke-linejoin:miter;stroke-miterlimit:4;stroke-opacity:1;stroke-dasharray:none"
       id="path2987-0"
       sodipodi:cx="11"
       sodipodi:cy="13"
       sodipodi:rx="7"
       sodipodi:ry="7"
       d="m 18,13 c 0,3.865993 -3.134007,7 -7,7 -3.8659932,0 -7,-3.134007 -7,-7 0,-3.8659932 3.1340068,-7 7,-7 3.865993,0 7,3.1340068 7,7 z"
       transform="matrix(7.7857029,0,0,7.7857029,-21.642732,-117.21414)" />
    <path
       transform="matrix(7.6428692,0,0,7.6428692,-20.071561,-115.3573)"
       d="m 18,13 c 0,3.865993 -3.134007,7 -7,7 -3.8659932,0 -7,-3.134007 -7,-7 0,-3.8659932 3.1340068,-7 7,-7 3.865993,0 7,3.1340068 7,7 z"
       sodipodi:ry="7"
       sodipodi:rx="7"
       sodipodi:cy="13"
       sodipodi:cx="11"
       id="path3856"
       style="fill:none;stroke:url(#linearGradient3864);stroke-width:0.13084093;stroke-linecap:round;stroke-linejoin:miter;stroke-miterlimit:4;stroke-opacity:1;stroke-dasharray:none"
       sodipodi:type="arc" />
    <g
       style="font-size:88px;font-style:normal;font-variant:normal;font-weight:bold;font-stretch:normal;line-height:125%;letter-spacing:0px;word-spacing:0px;fill:#ffffff;fill-opacity:1;stroke:none;font-family:Droid Sans;-inkscape-font-specification:Droid Sans Bold"
       id="text3870">
      <path
         d="m 55.792969,-2.6350002 0,-3.1796875 c -1.2e-5,-1.460912 0.143217,-2.7786191 0.429687,-3.953125 0.315092,-1.2030963 0.773425,-2.3346053 1.375,-3.3945313 0.630195,-1.088509 1.432277,-2.134081 2.40625,-3.136719 0.973942,-1.031214 2.14842,-2.091109 3.523438,-3.179687 1.203104,-0.945274 2.220031,-1.790325 3.050781,-2.535156 0.830706,-0.744751 1.503883,-1.475219 2.019531,-2.191407 0.515601,-0.744748 0.887996,-1.518185 1.117188,-2.320312 0.229141,-0.802038 0.343724,-1.733027 0.34375,-2.792969 -2.6e-5,-1.632763 -0.558619,-2.979116 -1.675782,-4.039062 -1.088564,-1.059844 -2.764344,-1.589791 -5.027343,-1.589844 -1.97658,5.3e-5 -4.110692,0.415417 -6.402344,1.246094 -2.263031,0.83078 -4.611987,1.847706 -7.046875,3.050781 l -4.382813,-9.496094 c 1.231769,-0.716087 2.563799,-1.389263 3.996094,-2.019531 1.460931,-0.658793 2.964836,-1.231709 4.511719,-1.71875 1.57551,-0.515563 3.165352,-0.916604 4.769531,-1.203125 1.604151,-0.286395 3.17967,-0.429624 4.726563,-0.429688 2.921853,6.4e-5 5.557267,0.358137 7.90625,1.074219 2.348929,0.687562 4.339812,1.704488 5.972656,3.050781 1.632778,1.346413 2.87887,2.979224 3.738281,4.898438 0.887983,1.919323 1.331993,4.110727 1.332031,6.574219 -3.8e-5,1.804733 -0.200558,3.423221 -0.601562,4.855468 -0.401079,1.403688 -1.002641,2.721395 -1.804688,3.953125 -0.773472,1.203163 -1.761752,2.377641 -2.964843,3.523438 -1.174511,1.117222 -2.54951,2.306023 -4.125,3.566406 -1.203153,0.945344 -2.191433,1.776072 -2.964844,2.492188 -0.744816,0.687529 -1.332055,1.346382 -1.761719,1.976562 -0.429711,0.6302355 -0.730492,1.289089 -0.902344,1.9765625 -0.143251,0.6588793 -0.214866,1.4466389 -0.214843,2.3632813 l 0,2.578125 -11.34375,0 M 54.375,12.060312 c -1e-5,-1.346346 0.186188,-2.4778557 0.558594,-3.394531 0.401031,-0.945302 0.945301,-1.7044158 1.632812,-2.2773437 0.687487,-0.5729043 1.48957,-0.9882685 2.40625,-1.2460938 0.945297,-0.2577992 1.9479,-0.3867053 3.007813,-0.3867187 1.002585,1.34e-5 1.947897,0.1289195 2.835937,0.3867187 0.916646,0.2578253 1.718728,0.6731895 2.40625,1.2460938 0.687477,0.5729279 1.231747,1.3320417 1.632813,2.2773437 0.401017,0.9166753 0.601537,2.048185 0.601562,3.394531 -2.5e-5,1.289068 -0.200545,2.391931 -0.601562,3.308594 -0.401066,0.916669 -0.945336,1.675782 -1.632813,2.277344 -0.687522,0.601562 -1.489604,1.031249 -2.40625,1.289062 -0.88804,0.286458 -1.833352,0.429687 -2.835937,0.429688 -1.059913,-10e-7 -2.062516,-0.14323 -3.007813,-0.429688 -0.91668,-0.257813 -1.718763,-0.6875 -2.40625,-1.289062 C 55.878895,17.044688 55.334625,16.285575 54.933594,15.368906 54.561188,14.452243 54.37499,13.34938 54.375,12.060312"
         style=""
         id="path2998" />
    </g>
    <g
       style="font-size:88px;font-style:normal;font-variant:normal;font-weight:bold;font-stretch:normal;line-height:125%;letter-spacing:0px;word-spacing:0px;fill:#4d4d4d;fill-opacity:1;stroke:none;font-family:Droid Sans;-inkscape-font-specification:Droid Sans Bold"
       id="text3866">
      <path
         d="m 55.792969,-3.6354141 0,-3.1796875 c -1.2e-5,-1.460912 0.143217,-2.7786191 0.429687,-3.9531254 0.315092,-1.203095 0.773425,-2.334605 1.375,-3.394531 0.630195,-1.088509 1.432277,-2.134081 2.40625,-3.136719 0.973942,-1.031214 2.14842,-2.091109 3.523438,-3.179687 1.203104,-0.945274 2.220031,-1.790325 3.050781,-2.535156 0.830706,-0.744751 1.503883,-1.475219 2.019531,-2.191407 0.515601,-0.744748 0.887996,-1.518185 1.117188,-2.320312 0.229141,-0.802038 0.343724,-1.733027 0.34375,-2.792969 -2.6e-5,-1.632763 -0.558619,-2.979116 -1.675782,-4.039062 -1.088564,-1.059844 -2.764344,-1.589791 -5.027343,-1.589844 -1.97658,5.3e-5 -4.110692,0.415417 -6.402344,1.246094 -2.263031,0.83078 -4.611987,1.847706 -7.046875,3.050781 l -4.382813,-9.496094 c 1.231769,-0.716087 2.563799,-1.389263 3.996094,-2.019531 1.460931,-0.658793 2.964836,-1.231709 4.511719,-1.71875 1.57551,-0.515563 3.165352,-0.916604 4.769531,-1.203125 1.604151,-0.286395 3.17967,-0.429624 4.726563,-0.429688 2.921853,6.4e-5 5.557267,0.358137 7.90625,1.074219 2.348929,0.687562 4.339812,1.704488 5.972656,3.050781 1.632778,1.346413 2.87887,2.979224 3.738281,4.898438 0.887983,1.919323 1.331993,4.110728 1.332031,6.574219 -3.8e-5,1.804733 -0.200558,3.423221 -0.601562,4.855468 -0.401079,1.403688 -1.002641,2.721395 -1.804688,3.953125 -0.773472,1.203163 -1.761752,2.377641 -2.964843,3.523438 -1.174511,1.117222 -2.54951,2.306023 -4.125,3.566406 -1.203153,0.945344 -2.191433,1.776072 -2.964844,2.492188 -0.744816,0.687529 -1.332055,1.346382 -1.761719,1.976562 -0.429711,0.6302356 -0.730492,1.2890891 -0.902344,1.9765626 -0.143251,0.6588793 -0.214866,1.4466389 -0.214843,2.3632813 l 0,2.578125 -11.34375,0 M 54.375,11.059898 c -1e-5,-1.3463463 0.186188,-2.4778556 0.558594,-3.3945309 0.401031,-0.945302 0.945301,-1.7044158 1.632812,-2.2773437 0.687487,-0.5729043 1.48957,-0.9882685 2.40625,-1.2460938 0.945297,-0.2577992 1.9479,-0.3867053 3.007813,-0.3867187 1.002585,1.34e-5 1.947897,0.1289195 2.835937,0.3867187 0.916646,0.2578253 1.718728,0.6731895 2.40625,1.2460938 0.687477,0.5729279 1.231747,1.3320417 1.632813,2.2773437 0.401017,0.9166753 0.601537,2.0481846 0.601562,3.3945309 -2.5e-5,1.289068 -0.200545,2.391931 -0.601562,3.308594 -0.401066,0.916669 -0.945336,1.675783 -1.632813,2.277344 -0.687522,0.601562 -1.489604,1.031249 -2.40625,1.289062 -0.88804,0.286458 -1.833352,0.429687 -2.835937,0.429688 -1.059913,-10e-7 -2.062516,-0.14323 -3.007813,-0.429688 -0.91668,-0.257813 -1.718763,-0.6875 -2.40625,-1.289062 C 55.878895,16.044275 55.334625,15.285161 54.933594,14.368492 54.561188,13.451829 54.37499,12.348966 54.375,11.059898"
         style=""
         id="path2995" />
    </g>
  </g>
</svg>
