<?xml version="1.0" encoding="UTF-8" standalone="no"?>
<!-- Created with Inkscape (http://www.inkscape.org/) -->

<svg
   xmlns:dc="http://purl.org/dc/elements/1.1/"
   xmlns:cc="http://creativecommons.org/ns#"
   xmlns:rdf="http://www.w3.org/1999/02/22-rdf-syntax-ns#"
   xmlns:svg="http://www.w3.org/2000/svg"
   xmlns="http://www.w3.org/2000/svg"
   xmlns:sodipodi="http://sodipodi.sourceforge.net/DTD/sodipodi-0.dtd"
   xmlns:inkscape="http://www.inkscape.org/namespaces/inkscape"
   width="22"
   height="22"
   id="svg3766"
   version="1.1"
   inkscape:version="0.48.3.1 r9886"
   inkscape:export-filename="/home/ochosi/rain_22.png"
   inkscape:export-xdpi="90"
   inkscape:export-ydpi="90"
   sodipodi:docname="thunder-rain.svg">
  <defs
     id="defs3768" />
  <sodipodi:namedview
     id="base"
     pagecolor="#ffffff"
     bordercolor="#666666"
     borderopacity="1.0"
     inkscape:pageopacity="0.0"
     inkscape:pageshadow="2"
     inkscape:zoom="7.9195959"
     inkscape:cx="10.26485"
     inkscape:cy="8.2138155"
     inkscape:document-units="px"
     inkscape:current-layer="layer1"
     showgrid="true"
     inkscape:snap-global="false"
     showguides="true"
     inkscape:guide-bbox="true"
     inkscape:window-width="1122"
     inkscape:window-height="914"
     inkscape:window-x="857"
     inkscape:window-y="209"
     inkscape:window-maximized="0">
    <inkscape:grid
       type="xygrid"
       id="grid3774"
       empspacing="5"
       visible="true"
       enabled="true"
       snapvisiblegridlinesonly="true" />
    <sodipodi:guide
       orientation="0,1"
       position="15.578446,12.997822"
       id="guide4320" />
  </sodipodi:namedview>
  <metadata
     id="metadata3771">
    <rdf:RDF>
      <cc:Work
         rdf:about="">
        <dc:format>image/svg+xml</dc:format>
        <dc:type
           rdf:resource="http://purl.org/dc/dcmitype/StillImage" />
        <dc:title></dc:title>
      </cc:Work>
    </rdf:RDF>
  </metadata>
  <g
     inkscape:label="Layer 1"
     inkscape:groupmode="layer"
     id="layer1"
     transform="translate(0,-1030.3622)">
    <path
       style="fill:#e5e5e5;fill-opacity:1;stroke:#bcbcbc;stroke-width:1;stroke-miterlimit:4;stroke-opacity:1;stroke-dasharray:none"
       d="m 7.4810902,1045.8622 5.7905068,0 c 3.929008,0 7.240201,-3.5591 7.249357,-7.0176 0.0093,-3.5476 -2.403185,-6.9824 -7.227058,-6.9824 -4.8238712,0 -5.6721011,4.2128 -5.6721011,4.2128 -3.5300906,-1.2308 -6.3022075,1.5896 -6.1126192,4.7872 0.1799672,3.0353 2.5673112,5 5.9719145,5 z"
       id="path2985"
       inkscape:connector-curvature="0"
       sodipodi:nodetypes="scszcss" />
    <path
       sodipodi:nodetypes="czzc"
       inkscape:connector-curvature="0"
       id="path4343-7"
       d="m 6.320747,1044.8621 c 0,0 -3.180308,2.4415 -2.787219,3.7082 0.393108,1.2669 1.96728,1.6732 3.00969,0.8993 1.042417,-0.7741 -0.222471,-4.6075 -0.222471,-4.6075 z"
       style="fill:#37b1df;fill-opacity:1;stroke:#1d88b1;stroke-width:0.99975032;stroke-miterlimit:4;stroke-opacity:1;stroke-dasharray:none" />
    <path
       style="fill:#37b1df;fill-opacity:1;stroke:#1d88b1;stroke-width:0.99975032;stroke-miterlimit:4;stroke-opacity:1;stroke-dasharray:none"
       d="m 17.320747,1042.8621 c 0,0 -3.180308,2.4415 -2.787219,3.7082 0.393108,1.2669 1.96728,1.6732 3.00969,0.8993 1.042417,-0.7741 -0.222471,-4.6075 -0.222471,-4.6075 z"
       id="path4345-2"
       inkscape:connector-curvature="0"
       sodipodi:nodetypes="czzc" />
    <path
       style="fill:#ffff14;fill-opacity:1;stroke:#c1c138;stroke-width:1;stroke-miterlimit:4;stroke-opacity:1;stroke-dasharray:none;opacity:1"
       d="m 11,1035.8783 -3,7.985 3,0 -1.1129527,7.7739 5.6129527,-10.7739 -2.492108,0 3.154146,-4.985 z"
       id="path3754"
       inkscape:connector-curvature="0"
       sodipodi:nodetypes="cccccccc" />
    <path
       sodipodi:nodetypes="czzc"
       inkscape:connector-curvature="0"
       id="path4343"
       d="m -12.868792,1031.5372 c 0,0 -3.180308,2.4415 -2.787219,3.7082 0.393108,1.2669 1.96728,1.6732 3.00969,0.8993 1.042417,-0.7741 -0.222471,-4.6075 -0.222471,-4.6075 z"
       style="fill:#37b1df;fill-opacity:1;stroke:#1d88b1;stroke-width:0.99975032;stroke-miterlimit:4;stroke-opacity:1;stroke-dasharray:none" />
    <path
       style="fill:#37b1df;fill-opacity:1;stroke:#1d88b1;stroke-width:0.99975032;stroke-miterlimit:4;stroke-opacity:1;stroke-dasharray:none"
       d="m -1.8866488,1029.9301 c 0,0 -3.180308,2.4415 -2.787219,3.7082 0.393108,1.2669 1.96728,1.6732 3.00969,0.8993 1.042417,-0.7741 -0.222471,-4.6075 -0.222471,-4.6075 z"
       id="path4345"
       inkscape:connector-curvature="0"
       sodipodi:nodetypes="czzc" />
    <path
       sodipodi:nodetypes="czzc"
       inkscape:connector-curvature="0"
       id="path4347"
       d="m -8.0473638,1034.8767 c 0,0 -3.1803082,2.4415 -2.7872192,3.7082 0.393108,1.2669 1.9672802,1.6732 3.0096902,0.8993 1.042417,-0.7741 -0.222471,-4.6075 -0.222471,-4.6075 z"
       style="fill:#37b1df;fill-opacity:1;stroke:#1d88b1;stroke-width:0.99975032;stroke-miterlimit:4;stroke-opacity:1;stroke-dasharray:none" />
  </g>
</svg>
