<?xml version="1.0" encoding="UTF-8" standalone="no"?>
<!-- Created with Inkscape (http://www.inkscape.org/) -->

<svg
   xmlns:dc="http://purl.org/dc/elements/1.1/"
   xmlns:cc="http://creativecommons.org/ns#"
   xmlns:rdf="http://www.w3.org/1999/02/22-rdf-syntax-ns#"
   xmlns:svg="http://www.w3.org/2000/svg"
   xmlns="http://www.w3.org/2000/svg"
   xmlns:sodipodi="http://sodipodi.sourceforge.net/DTD/sodipodi-0.dtd"
   xmlns:inkscape="http://www.inkscape.org/namespaces/inkscape"
   width="128"
   height="128"
   id="svg3771"
   version="1.1"
   inkscape:version="0.48.3.1 r9886"
   sodipodi:docname="lightcloud-night.svg">
  <defs
     id="defs3773" />
  <sodipodi:namedview
     id="base"
     pagecolor="#ffffff"
     bordercolor="#666666"
     borderopacity="1.0"
     inkscape:pageopacity="0.0"
     inkscape:pageshadow="2"
     inkscape:zoom="8.3195532"
     inkscape:cx="44.708099"
     inkscape:cy="44.889817"
     inkscape:current-layer="layer1"
     showgrid="true"
     inkscape:grid-bbox="true"
     inkscape:document-units="px"
     inkscape:window-width="1233"
     inkscape:window-height="902"
     inkscape:window-x="1723"
     inkscape:window-y="73"
     inkscape:window-maximized="0">
    <inkscape:grid
       type="xygrid"
       id="grid4294"
       empspacing="5"
       visible="true"
       enabled="true"
       snapvisiblegridlinesonly="true" />
  </sodipodi:namedview>
  <metadata
     id="metadata3776">
    <rdf:RDF>
      <cc:Work
         rdf:about="">
        <dc:format>image/svg+xml</dc:format>
        <dc:type
           rdf:resource="http://purl.org/dc/dcmitype/StillImage" />
        <dc:title />
      </cc:Work>
    </rdf:RDF>
  </metadata>
  <g
     id="layer1"
     inkscape:label="Layer 1"
     inkscape:groupmode="layer"
     transform="translate(0,80)">
    <path
       sodipodi:nodetypes="czzzczzc"
       inkscape:connector-curvature="0"
       id="path5249"
       d="m 67.472288,-60.475103 c 0,0 -31.302372,-1.342148 -46.085786,15.711867 C 6.603093,-27.709221 9.3028904,-6.4700908 15.31377,4.7740978 21.324651,16.018287 31.328381,28.764353 52.570787,28.495752 73.813191,28.227155 97.274856,1.4530932 97.274856,1.4530932 c 0,0 -16.302845,8.7427928 -33.351801,2.6683174 C 46.874107,-1.9530638 39.020228,-15.257882 42.967604,-32.036112 46.914986,-48.813855 67.472288,-60.475103 67.472288,-60.475103 z"
       style="fill:#ebeebf;fill-opacity:1;stroke:#cdcd7e;stroke-width:1;stroke-linecap:butt;stroke-linejoin:bevel;stroke-miterlimit:4;stroke-opacity:1;stroke-dasharray:none"
       inkscape:export-xdpi="90"
       inkscape:export-ydpi="90" />
    <path
       style="fill:#e5e5e5;fill-opacity:1;stroke:#bcbcbc;stroke-width:0.99999994000000003;stroke-miterlimit:4;stroke-opacity:1;stroke-dasharray:none;opacity:0.7"
       d="m 68.263485,27.536458 11.872667,0 C 88.19206,27.536458 94.981225,20.164037 95,13 95.01901,5.6514007 90.072591,-1.4635412 80.181873,-1.4635412 c -9.890709,0 -11.62989,8.7265123 -11.62989,8.7265123 -7.237982,-2.5495133 -12.92184,3.2927439 -12.533115,9.9163439 0.369001,6.287405 5.263932,10.357143 12.244617,10.357143 z"
       id="path2985"
       inkscape:connector-curvature="0"
       sodipodi:nodetypes="scszcss" />
    <path
       sodipodi:nodetypes="scszcss"
       inkscape:connector-curvature="0"
       id="path2986"
       d="m 40.618962,-6.5 8.828393,0 c 5.990291,0 11.038644,-5.33865 11.052605,-10.526401 C 60.5141,-22.3478 56.835989,-27.5 49.481353,-27.5 c -7.35463,0 -8.647867,6.319199 -8.647867,6.319199 -5.382089,-1.846199 -9.608548,2.3844 -9.319496,7.180801 0.274385,4.5529477 3.914206,7.5 9.104972,7.5 z"
       style="fill:#e5e5e5;fill-opacity:1;stroke:#bcbcbc;stroke-width:1;stroke-miterlimit:4;stroke-opacity:1;stroke-dasharray:none;opacity:0.8" />
    <path
       style="fill:#e5e5e5;fill-opacity:1;stroke:#bcbcbc;stroke-width:1;stroke-miterlimit:4;stroke-opacity:1;stroke-dasharray:none;opacity:0.9"
       d="m 16.618962,21.5 8.828393,0 C 31.437646,21.5 36.485999,16.16135 36.49996,10.973599 36.5141,5.6522 32.835989,0.5 25.481353,0.5 18.126723,0.5 16.833486,6.819199 16.833486,6.819199 11.451397,4.973 7.224938,9.203599 7.51399,14 c 0.274385,4.552948 3.914206,7.5 9.104972,7.5 z"
       id="path2988"
       inkscape:connector-curvature="0"
       sodipodi:nodetypes="scszcss" />
  </g>
</svg>
