<?xml version="1.0" encoding="UTF-8" standalone="no"?>
<!-- Created with Inkscape (http://www.inkscape.org/) -->

<svg
   xmlns:dc="http://purl.org/dc/elements/1.1/"
   xmlns:cc="http://creativecommons.org/ns#"
   xmlns:rdf="http://www.w3.org/1999/02/22-rdf-syntax-ns#"
   xmlns:svg="http://www.w3.org/2000/svg"
   xmlns="http://www.w3.org/2000/svg"
   xmlns:sodipodi="http://sodipodi.sourceforge.net/DTD/sodipodi-0.dtd"
   xmlns:inkscape="http://www.inkscape.org/namespaces/inkscape"
   width="128"
   height="128"
   id="svg3771"
   version="1.1"
   inkscape:version="0.48.3.1 r9886"
   sodipodi:docname="lightrainthunder.svg">
  <defs
     id="defs3773" />
  <sodipodi:namedview
     id="base"
     pagecolor="#ffffff"
     bordercolor="#666666"
     borderopacity="1.0"
     inkscape:pageopacity="0.0"
     inkscape:pageshadow="2"
     inkscape:zoom="3.5"
     inkscape:cx="68.285714"
     inkscape:cy="56.93692"
     inkscape:current-layer="layer1"
     showgrid="true"
     inkscape:grid-bbox="true"
     inkscape:document-units="px"
     inkscape:window-width="1233"
     inkscape:window-height="902"
     inkscape:window-x="1723"
     inkscape:window-y="73"
     inkscape:window-maximized="0">
    <inkscape:grid
       type="xygrid"
       id="grid4294"
       empspacing="5"
       visible="true"
       enabled="true"
       snapvisiblegridlinesonly="true" />
  </sodipodi:namedview>
  <metadata
     id="metadata3776">
    <rdf:RDF>
      <cc:Work
         rdf:about="">
        <dc:format>image/svg+xml</dc:format>
        <dc:type
           rdf:resource="http://purl.org/dc/dcmitype/StillImage" />
        <dc:title />
      </cc:Work>
    </rdf:RDF>
  </metadata>
  <g
     id="layer1"
     inkscape:label="Layer 1"
     inkscape:groupmode="layer"
     transform="translate(0,80)">
    <path
       style="fill:#e5e5e5;fill-opacity:1;stroke:#bcbcbc;stroke-width:1;stroke-miterlimit:4;stroke-opacity:1;stroke-dasharray:none"
       d="m 91.407969,11.04526 14.916941,0 C 116.44644,11.04526 124.97642,1.8932875 125,-7 c 0.0239,-9.1224 -6.19085,-17.954742 -18.61764,-17.954742 -12.426795,0 -14.611919,10.832912 -14.611919,10.832912 -9.093877,-3.164912 -16.235134,4.087544 -15.746737,12.3099461 0.463618,7.8050554 6.61366,12.8571439 15.384265,12.8571439 z"
       id="path2999"
       inkscape:connector-curvature="0"
       sodipodi:nodetypes="scszcss" />
    <path
       style="fill:#e5e5e5;fill-opacity:1;stroke:#bcbcbc;stroke-width:1;stroke-miterlimit:4;stroke-opacity:1;stroke-dasharray:none"
       d="M 20.60961,7 30.96014,7 C 37.983244,7 43.902004,0.644464 43.918364,-5.53143 43.934974,-11.86643 39.622672,-18 31,-18 22.377329,-18 20.861121,-10.477145 20.861121,-10.477145 14.551083,-12.675 9.5959253,-7.638573 9.9348131,-1.928572 10.256507,3.491606 14.523884,7 20.60961,7 z"
       id="path3003"
       inkscape:connector-curvature="0"
       sodipodi:nodetypes="scszcss" />
    <path
       style="fill:#e5e5e5;fill-opacity:1;stroke:#bcbcbc;stroke-width:1;stroke-miterlimit:4;stroke-opacity:1;stroke-dasharray:none"
       d="m 32.60961,19 10.35053,0 C 49.983244,19 55.902004,12.644464 55.918364,6.46857 55.934974,0.1335701 51.622672,-6 43,-6 34.377329,-6 32.861121,1.5228549 32.861121,1.5228549 26.551083,-0.675 21.595925,4.361427 21.934813,10.071428 22.256507,15.491606 26.523884,19 32.60961,19 z"
       id="path3001"
       inkscape:connector-curvature="0"
       sodipodi:nodetypes="scszcss" />
    <path
       sodipodi:nodetypes="scszcss"
       inkscape:connector-curvature="0"
       id="path2997"
       d="m 14.60961,23 10.35053,0 C 31.983244,23 37.902004,16.644464 37.918364,10.46857 37.934974,4.1335701 33.622672,-2 25,-2 16.377329,-2 14.861121,5.5228549 14.861121,5.5228549 8.5510833,3.325 3.5959253,8.361427 3.9348131,14.071428 4.2565073,19.491606 8.5238838,23 14.60961,23 z"
       style="fill:#e5e5e5;fill-opacity:1;stroke:#bcbcbc;stroke-width:1;stroke-miterlimit:4;stroke-opacity:1;stroke-dasharray:none" />
    <path
       sodipodi:nodetypes="scszcss"
       inkscape:connector-curvature="0"
       id="path3005"
       d="m 37.407969,-10.95474 14.916941,0 C 62.44644,-10.95474 70.97642,-20.106713 71,-29 c 0.0239,-9.1224 -6.19085,-17.954742 -18.61764,-17.954742 -12.426795,0 -14.611919,10.832912 -14.611919,10.832912 -9.093877,-3.164912 -16.235134,4.087544 -15.746737,12.309946 0.463618,7.805056 6.61366,12.857144 15.384265,12.857144 z"
       style="fill:#e5e5e5;fill-opacity:1;stroke:#bcbcbc;stroke-width:1;stroke-miterlimit:4;stroke-opacity:1;stroke-dasharray:none" />
    <path
       style="fill:#e5e5e5;fill-opacity:1;stroke:#bcbcbc;stroke-width:1;stroke-miterlimit:4;stroke-opacity:1;stroke-dasharray:none"
       d="m 58.91362,3.578954 21.005489,0 c 14.252768,0 26.264371,-12.8582529 26.297571,-25.353064 C 106.25039,-34.590817 97.498953,-47 80,-47 c -17.498949,0 -20.575961,15.219926 -20.575961,15.219926 -12.805664,-4.446609 -22.86172,5.74288 -22.173977,17.295116 0.65285,10.965876 9.313114,18.063912 21.663558,18.063912 z"
       id="path2985"
       inkscape:connector-curvature="0"
       sodipodi:nodetypes="scszcss" />
    <path
       sodipodi:nodetypes="czzc"
       inkscape:connector-curvature="0"
       id="path4343"
       d="m 22.665077,29.640879 c 0,0 -3.180352,2.441555 -2.787257,3.708294 0.393114,1.266858 1.967306,1.673184 3.00973,0.899173 1.042432,-0.774131 -0.222473,-4.607467 -0.222473,-4.607467 z"
       style="fill:#afe0f2;fill-opacity:1;stroke:#67c3e6;stroke-width:1;stroke-miterlimit:4;stroke-opacity:1;stroke-dasharray:none" />
    <path
       style="fill:#afe0f2;fill-opacity:1;stroke:#67c3e6;stroke-width:1;stroke-miterlimit:4;stroke-opacity:1;stroke-dasharray:none"
       d="m 23.31047,11.9229 c 0,0 -4.601693,3.906067 -4.032918,5.932626 0.568801,2.026754 2.846519,2.676805 4.354818,1.438522 1.508308,-1.238477 -0.3219,-7.371148 -0.3219,-7.371148 z"
       id="path3788"
       inkscape:connector-curvature="0"
       sodipodi:nodetypes="czzc" />
    <path
       sodipodi:nodetypes="czzc"
       inkscape:connector-curvature="0"
       id="path3790"
       d="m 32.855934,20.84291 c 0,0 -3.180352,2.441555 -2.787257,3.708294 0.393114,1.266858 1.967306,1.673184 3.00973,0.899173 1.042432,-0.774131 -0.222473,-4.607467 -0.222473,-4.607467 z"
       style="fill:#afe0f2;fill-opacity:1;stroke:#67c3e6;stroke-width:1;stroke-miterlimit:4;stroke-opacity:1;stroke-dasharray:none" />
    <path
       style="fill:#afe0f2;fill-opacity:1;stroke:#67c3e6;stroke-width:1;stroke-miterlimit:4;stroke-opacity:1;stroke-dasharray:none"
       d="m 99.467848,33.434644 c 0,0 -3.180352,2.441555 -2.787257,3.708294 0.393114,1.266858 1.967306,1.673184 3.00973,0.899173 1.042429,-0.774131 -0.222473,-4.607467 -0.222473,-4.607467 z"
       id="path3792"
       inkscape:connector-curvature="0"
       sodipodi:nodetypes="czzc" />
    <path
       sodipodi:nodetypes="czzc"
       inkscape:connector-curvature="0"
       id="path3794"
       d="m 88.050873,8.0337673 c 0,0 -3.180352,2.4415547 -2.787257,3.7082937 0.393114,1.266858 1.967306,1.673184 3.00973,0.899173 1.042432,-0.774131 -0.222473,-4.6074667 -0.222473,-4.6074667 z"
       style="fill:#afe0f2;fill-opacity:1;stroke:#67c3e6;stroke-width:1;stroke-miterlimit:4;stroke-opacity:1;stroke-dasharray:none" />
    <path
       style="fill:#ffff14;fill-opacity:1;stroke:#c1c138;stroke-width:1;stroke-linejoin:round;stroke-miterlimit:4;stroke-opacity:1;stroke-dasharray:none"
       d="m 60.618512,-8.761921 -5.860754,19.190488 5.499543,0 L 58.189897,30.238079 70.438115,3 65,3 71.882772,-8.761921 z"
       id="path3754"
       inkscape:connector-curvature="0"
       sodipodi:nodetypes="cccccccc" />
    <path
       sodipodi:nodetypes="czzc"
       inkscape:connector-curvature="0"
       id="path3776"
       d="m 101.22492,10.823116 c 0,0 -4.601692,3.906067 -4.032917,5.932626 0.568801,2.026754 2.846517,2.676805 4.354817,1.438522 1.50831,-1.238477 -0.3219,-7.371148 -0.3219,-7.371148 z"
       style="fill:#afe0f2;fill-opacity:1;stroke:#67c3e6;stroke-width:1;stroke-miterlimit:4;stroke-opacity:1;stroke-dasharray:none" />
    <path
       style="fill:#afe0f2;fill-opacity:1;stroke:#67c3e6;stroke-width:1;stroke-miterlimit:4;stroke-opacity:1;stroke-dasharray:none"
       d="m 82.303375,19.600059 c 0,0 -4.601689,3.906067 -4.032914,5.932626 0.568801,2.026754 2.846519,2.676805 4.354814,1.438522 1.50831,-1.238477 -0.3219,-7.371148 -0.3219,-7.371148 z"
       id="path3778"
       inkscape:connector-curvature="0"
       sodipodi:nodetypes="czzc" />
    <path
       sodipodi:nodetypes="czzc"
       inkscape:connector-curvature="0"
       id="path3782"
       d="m 42.301338,4.6498017 c 0,0 -4.601693,3.906067 -4.032918,5.9326263 0.568801,2.026754 2.846519,2.676805 4.354818,1.438522 1.508308,-1.238477 -0.3219,-7.3711483 -0.3219,-7.3711483 z"
       style="fill:#afe0f2;fill-opacity:1;stroke:#67c3e6;stroke-width:1;stroke-miterlimit:4;stroke-opacity:1;stroke-dasharray:none" />
    <path
       style="fill:#afe0f2;fill-opacity:1;stroke:#67c3e6;stroke-width:1;stroke-miterlimit:4;stroke-opacity:1;stroke-dasharray:none"
       d="m 48.766314,18.791937 c 0,0 -4.601693,3.906067 -4.032918,5.932627 0.568801,2.026754 2.846519,2.676805 4.354818,1.438522 1.508308,-1.238477 -0.3219,-7.371149 -0.3219,-7.371149 z"
       id="path3784"
       inkscape:connector-curvature="0"
       sodipodi:nodetypes="czzc" />
    <path
       style="fill:#afe0f2;fill-opacity:1;stroke:#67c3e6;stroke-width:1;stroke-miterlimit:4;stroke-opacity:1;stroke-dasharray:none"
       d="m 42.464067,31.459154 c 0,0 -3.180353,2.441555 -2.787258,3.708294 0.393114,1.266858 1.967306,1.673184 3.009731,0.899173 1.042432,-0.774131 -0.222473,-4.607467 -0.222473,-4.607467 z"
       id="path3786"
       inkscape:connector-curvature="0"
       sodipodi:nodetypes="czzc" />
    <path
       style="fill:#afe0f2;fill-opacity:1;stroke:#67c3e6;stroke-width:1;stroke-miterlimit:4;stroke-opacity:1;stroke-dasharray:none"
       d="m 76.001131,32.267276 c 0,0 -3.180352,2.441555 -2.787257,3.708294 0.393114,1.266858 1.967306,1.673184 3.00973,0.899173 1.042432,-0.774131 -0.222473,-4.607467 -0.222473,-4.607467 z"
       id="path3789"
       inkscape:connector-curvature="0"
       sodipodi:nodetypes="czzc" />
    <path
       sodipodi:nodetypes="czzc"
       inkscape:connector-curvature="0"
       id="path3791"
       d="m 92.10512,24.323986 c 0,0 -3.180352,2.441555 -2.787257,3.708294 0.393114,1.266858 1.967306,1.673184 3.00973,0.899173 1.042432,-0.774131 -0.222473,-4.607467 -0.222473,-4.607467 z"
       style="fill:#afe0f2;fill-opacity:1;stroke:#67c3e6;stroke-width:1;stroke-miterlimit:4;stroke-opacity:1;stroke-dasharray:none" />
  </g>
</svg>
