<?xml version="1.0" encoding="UTF-8" standalone="no"?>
<!-- Created with Inkscape (http://www.inkscape.org/) -->

<svg
   xmlns:dc="http://purl.org/dc/elements/1.1/"
   xmlns:cc="http://creativecommons.org/ns#"
   xmlns:rdf="http://www.w3.org/1999/02/22-rdf-syntax-ns#"
   xmlns:svg="http://www.w3.org/2000/svg"
   xmlns="http://www.w3.org/2000/svg"
   xmlns:sodipodi="http://sodipodi.sourceforge.net/DTD/sodipodi-0.dtd"
   xmlns:inkscape="http://www.inkscape.org/namespaces/inkscape"
   width="48px"
   height="48px"
   id="svg3771"
   version="1.1"
   inkscape:version="0.48.3.1 r9886"
   sodipodi:docname="rainthunder-night.svg">
  <defs
     id="defs3773" />
  <sodipodi:namedview
     id="base"
     pagecolor="#ffffff"
     bordercolor="#666666"
     borderopacity="1.0"
     inkscape:pageopacity="0.0"
     inkscape:pageshadow="2"
     inkscape:zoom="4.9497475"
     inkscape:cx="-11.475034"
     inkscape:cy="19.469181"
     inkscape:current-layer="layer1"
     showgrid="true"
     inkscape:grid-bbox="true"
     inkscape:document-units="px"
     inkscape:window-width="1233"
     inkscape:window-height="902"
     inkscape:window-x="445"
     inkscape:window-y="66"
     inkscape:window-maximized="0">
    <inkscape:grid
       type="xygrid"
       id="grid4294" />
  </sodipodi:namedview>
  <metadata
     id="metadata3776">
    <rdf:RDF>
      <cc:Work
         rdf:about="">
        <dc:format>image/svg+xml</dc:format>
        <dc:type
           rdf:resource="http://purl.org/dc/dcmitype/StillImage" />
        <dc:title />
      </cc:Work>
    </rdf:RDF>
  </metadata>
  <g
     id="layer1"
     inkscape:label="Layer 1"
     inkscape:groupmode="layer">
    <path
       sodipodi:nodetypes="czzzczzc"
       inkscape:connector-curvature="0"
       id="path5249"
       d="m 27.105534,2.5112714 c 0,0 -14.068426,-0.603208 -20.7126299,7.061484 -6.64420203,7.6646926 -5.43081503,17.2103316 -2.729307,22.2638796 2.701509,5.053548 7.1975489,10.782094 16.7446589,10.661375 9.547109,-0.120717 20.09163,-12.153955 20.09163,-12.153955 0,0 -7.327087,3.929329 -14.989506,1.199239 C 17.847963,28.813204 14.318142,22.833535 16.092237,15.292788 17.866335,7.7522614 27.105534,2.5112714 27.105534,2.5112714 z"
       style="fill:#ebeebf;fill-opacity:1;stroke:#cdcd7e;stroke-width:1.00022757;stroke-linecap:butt;stroke-linejoin:bevel;stroke-miterlimit:4;stroke-opacity:1;stroke-dasharray:none"
       inkscape:export-xdpi="90"
       inkscape:export-ydpi="90" />
    <path
       style="fill:#e5e5e5;fill-opacity:1;stroke:#bcbcbc;stroke-width:1.00020254;stroke-miterlimit:4;stroke-opacity:1;stroke-dasharray:none"
       d="m 18.392365,39.499899 12.48146,0 c 8.468993,0 15.606282,-7.626591 15.626016,-15.037614 0.02004,-7.601948 -5.180075,-14.962184 -15.57795,-14.962184 -10.397875,0 -12.226235,9.027366 -12.226235,9.027366 C 11.08653,15.890058 5.1112224,21.933731 5.5198794,28.785686 5.9078024,35.289855 11.053731,39.499899 18.392365,39.499899 z"
       id="path2985"
       inkscape:connector-curvature="0"
       sodipodi:nodetypes="scszcss" />
    <path
       style="fill:#ffff14;fill-opacity:1;stroke:#c1c138;stroke-width:1;stroke-linejoin:round;stroke-miterlimit:4;stroke-opacity:1;stroke-dasharray:none"
       d="M 25.712001,23.499692 21.5,35.499846 l 3.952406,0 -1.4858,12.000154 8.802542,-16.800219 -3.908261,0 4.946504,-7.200089 z"
       id="path3754"
       inkscape:connector-curvature="0"
       sodipodi:nodetypes="cccccccc" />
    <path
       style="fill:#37b1df;fill-opacity:1;stroke:#1d88b1;stroke-width:0.99987423;stroke-miterlimit:4;stroke-opacity:1;stroke-dasharray:none"
       d="m 19.765649,39.499937 c 0,0 -3.681827,2.929748 -3.226752,4.44976 0.455098,1.520252 2.277512,2.007804 3.484307,1.079142 1.2068,-0.928902 -0.257555,-5.528902 -0.257555,-5.528902 z"
       id="path4428"
       inkscape:connector-curvature="0"
       sodipodi:nodetypes="czzc" />
    <path
       style="fill:#37b1df;fill-opacity:1;stroke:#1d88b1;stroke-width:0.99992615;stroke-miterlimit:4;stroke-opacity:1;stroke-dasharray:none"
       d="m 16.582035,30.499963 c 0,0 -4.602209,3.418002 -4.033373,5.191331 0.568862,1.773611 2.846841,2.342416 4.35531,1.258987 1.508477,-1.08371 -0.321937,-6.450318 -0.321937,-6.450318 z"
       id="path4436"
       inkscape:connector-curvature="0"
       sodipodi:nodetypes="czzc" />
    <path
       sodipodi:nodetypes="czzc"
       inkscape:connector-curvature="0"
       id="path3757"
       d="m 10.765648,40.499937 c 0,0 -3.6818265,2.929748 -3.2267515,4.44976 0.455098,1.520252 2.277512,2.007804 3.4843065,1.079142 1.206801,-0.928902 -0.257555,-5.528902 -0.257555,-5.528902 z"
       style="fill:#37b1df;fill-opacity:1;stroke:#1d88b1;stroke-width:0.99987423;stroke-miterlimit:4;stroke-opacity:1;stroke-dasharray:none" />
    <path
       style="fill:#37b1df;fill-opacity:1;stroke:#1d88b1;stroke-width:0.99987423;stroke-miterlimit:4;stroke-opacity:1;stroke-dasharray:none"
       d="m 39.765649,30.499937 c 0,0 -3.681827,2.929748 -3.226752,4.44976 0.455098,1.520252 2.277512,2.007804 3.484307,1.079142 1.2068,-0.928902 -0.257555,-5.528902 -0.257555,-5.528902 z"
       id="path3759"
       inkscape:connector-curvature="0"
       sodipodi:nodetypes="czzc" />
    <path
       sodipodi:nodetypes="czzc"
       inkscape:connector-curvature="0"
       id="path2998"
       d="m 34.765649,40.499937 c 0,0 -3.681827,2.929748 -3.226752,4.44976 0.455098,1.520252 2.277512,2.007804 3.484307,1.079142 1.2068,-0.928902 -0.257555,-5.528902 -0.257555,-5.528902 z"
       style="fill:#37b1df;fill-opacity:1;stroke:#1d88b1;stroke-width:0.99987423;stroke-miterlimit:4;stroke-opacity:1;stroke-dasharray:none" />
  </g>
</svg>
