<?xml version="1.0" encoding="UTF-8" standalone="no"?>
<!-- Created with Inkscape (http://www.inkscape.org/) -->

<svg
   xmlns:dc="http://purl.org/dc/elements/1.1/"
   xmlns:cc="http://creativecommons.org/ns#"
   xmlns:rdf="http://www.w3.org/1999/02/22-rdf-syntax-ns#"
   xmlns:svg="http://www.w3.org/2000/svg"
   xmlns="http://www.w3.org/2000/svg"
   xmlns:xlink="http://www.w3.org/1999/xlink"
   xmlns:sodipodi="http://sodipodi.sourceforge.net/DTD/sodipodi-0.dtd"
   xmlns:inkscape="http://www.inkscape.org/namespaces/inkscape"
   width="48px"
   height="48px"
   id="svg3771"
   version="1.1"
   inkscape:version="0.48.3.1 r9886"
   sodipodi:docname="lightrainthundersun.svg"
   inkscape:export-filename="/home/ochosi/Nerdstuff/shimmer/weather-icons/48/sun_alt.png"
   inkscape:export-xdpi="63"
   inkscape:export-ydpi="63">
  <defs
     id="defs3773">
    <linearGradient
       id="linearGradient3822">
      <stop
         style="stop-color:#f0a900;stop-opacity:1;"
         offset="0"
         id="stop3824" />
      <stop
         style="stop-color:#fdbf00;stop-opacity:0;"
         offset="1"
         id="stop3826" />
    </linearGradient>
    <radialGradient
       inkscape:collect="always"
       xlink:href="#linearGradient3773"
       id="radialGradient3802"
       gradientUnits="userSpaceOnUse"
       cx="11"
       cy="13"
       fx="11"
       fy="13"
       r="7.5" />
    <linearGradient
       id="linearGradient3773">
      <stop
         style="stop-color:#fffd3f;stop-opacity:1;"
         offset="0"
         id="stop3775" />
      <stop
         id="stop3764"
         offset="0.5"
         style="stop-color:#fef232;stop-opacity:1;" />
      <stop
         style="stop-color:#f4e000;stop-opacity:1;"
         offset="1"
         id="stop3777" />
    </linearGradient>
    <radialGradient
       inkscape:collect="always"
       xlink:href="#linearGradient3773"
       id="radialGradient3848"
       gradientUnits="userSpaceOnUse"
       cx="11"
       cy="13"
       fx="11"
       fy="13"
       r="7.5" />
    <radialGradient
       inkscape:collect="always"
       xlink:href="#linearGradient3822"
       id="radialGradient3828"
       cx="24.9375"
       cy="23"
       fx="24.9375"
       fy="23"
       r="16.1875"
       gradientTransform="matrix(1,0,0,0.98069498,0,0.44401544)"
       gradientUnits="userSpaceOnUse" />
  </defs>
  <sodipodi:namedview
     id="base"
     pagecolor="#ffffff"
     bordercolor="#666666"
     borderopacity="1.0"
     inkscape:pageopacity="0.0"
     inkscape:pageshadow="2"
     inkscape:zoom="8"
     inkscape:cx="8.3954208"
     inkscape:cy="21.760565"
     inkscape:current-layer="layer1"
     showgrid="false"
     inkscape:grid-bbox="true"
     inkscape:document-units="px"
     inkscape:window-width="1233"
     inkscape:window-height="902"
     inkscape:window-x="106"
     inkscape:window-y="76"
     inkscape:window-maximized="0">
    <inkscape:grid
       type="xygrid"
       id="grid4294" />
  </sodipodi:namedview>
  <metadata
     id="metadata3776">
    <rdf:RDF>
      <cc:Work
         rdf:about="">
        <dc:format>image/svg+xml</dc:format>
        <dc:type
           rdf:resource="http://purl.org/dc/dcmitype/StillImage" />
        <dc:title></dc:title>
      </cc:Work>
    </rdf:RDF>
  </metadata>
  <g
     id="layer1"
     inkscape:label="Layer 1"
     inkscape:groupmode="layer">
    <path
       sodipodi:nodetypes="czzzczzc"
       inkscape:connector-curvature="0"
       id="path5249"
       d="m 30.105534,4.0112708 c 0,0 -14.068426,-0.603208 -20.7126299,7.0614852 -6.644202,7.664693 -5.430815,17.210331 -2.729307,22.263879 2.701509,5.053548 7.1975489,10.782094 16.7446589,10.661375 9.547109,-0.120717 20.09163,-12.153955 20.09163,-12.153955 0,0 -7.327087,3.929329 -14.989506,1.199239 C 20.847963,30.313204 17.318142,24.333536 19.092237,16.792789 20.866335,9.2522617 30.105534,4.0112708 30.105534,4.0112708 z"
       style="fill:#ebeebf;fill-opacity:1;stroke:#cdcd7e;stroke-width:1.00022757;stroke-linecap:butt;stroke-linejoin:bevel;stroke-miterlimit:4;stroke-opacity:1;stroke-dasharray:none"
       inkscape:export-xdpi="90"
       inkscape:export-ydpi="90" />
    <path
       style="fill:#e5e5e5;fill-opacity:1;stroke:#bcbcbc;stroke-width:1;stroke-miterlimit:4;stroke-opacity:1;stroke-dasharray:none"
       d="m 26.990076,41.5 8.219547,0 c 5.577173,0 10.277367,-5.084435 10.290363,-10.025155 0.01319,-5.068006 -3.41129,-9.974869 -10.25871,-9.974869 -6.847421,0 -8.051471,6.018291 -8.051471,6.018291 -5.010916,-1.758288 -8.945897,2.270863 -8.67678,6.838868 C 18.768488,38.693282 22.15729,41.5 26.990076,41.5 z"
       id="path2985"
       inkscape:connector-curvature="0"
       sodipodi:nodetypes="scszcss" />
    <path
       sodipodi:nodetypes="czzc"
       inkscape:connector-curvature="0"
       id="path3790"
       d="m 27.320909,35.499764 c 0,0 -3.180351,2.441555 -2.787256,3.708294 0.393114,1.266858 1.967306,1.673184 3.009729,0.899173 1.042432,-0.774131 -0.222473,-4.607467 -0.222473,-4.607467 z"
       style="fill:#afe0f2;fill-opacity:1;stroke:#67c3e6;stroke-width:1;stroke-miterlimit:4;stroke-opacity:1;stroke-dasharray:none" />
    <path
       style="fill:#afe0f2;fill-opacity:1;stroke:#67c3e6;stroke-width:1;stroke-miterlimit:4;stroke-opacity:1;stroke-dasharray:none"
       d="m 22.32091,41.499764 c 0,0 -3.180352,2.441555 -2.787257,3.708294 0.393114,1.266858 1.967306,1.673184 3.00973,0.899173 C 23.585815,45.3331 22.32091,41.499764 22.32091,41.499764 z"
       id="path3792"
       inkscape:connector-curvature="0"
       sodipodi:nodetypes="czzc" />
    <path
       sodipodi:nodetypes="czzc"
       inkscape:connector-curvature="0"
       id="path3794"
       d="m 40.32091,40.499764 c 0,0 -3.180352,2.441555 -2.787257,3.708294 0.393114,1.266858 1.967306,1.673184 3.00973,0.899173 C 41.585815,44.3331 40.32091,40.499764 40.32091,40.499764 z"
       style="fill:#afe0f2;fill-opacity:1;stroke:#67c3e6;stroke-width:1;stroke-miterlimit:4;stroke-opacity:1;stroke-dasharray:none" />
    <path
       style="fill:#ffff14;fill-opacity:1;stroke:#c1c138;stroke-width:0.99996549;stroke-linejoin:round;stroke-miterlimit:4;stroke-opacity:1;stroke-dasharray:none"
       d="M 32.65895,29.499983 29.499983,38.5 l 2.964272,0 -1.114338,9.000017 6.601834,-12.600026 -2.931163,0 3.709836,-5.400008 z"
       id="path3754"
       inkscape:connector-curvature="0"
       sodipodi:nodetypes="cccccccc" />
  </g>
</svg>
