<?xml version="1.0" encoding="UTF-8" standalone="no"?>
<!-- Created with Inkscape (http://www.inkscape.org/) -->

<svg
   xmlns:dc="http://purl.org/dc/elements/1.1/"
   xmlns:cc="http://creativecommons.org/ns#"
   xmlns:rdf="http://www.w3.org/1999/02/22-rdf-syntax-ns#"
   xmlns:svg="http://www.w3.org/2000/svg"
   xmlns="http://www.w3.org/2000/svg"
   xmlns:sodipodi="http://sodipodi.sourceforge.net/DTD/sodipodi-0.dtd"
   xmlns:inkscape="http://www.inkscape.org/namespaces/inkscape"
   width="48px"
   height="48px"
   id="svg3771"
   version="1.1"
   inkscape:version="0.48.3.1 r9886"
   sodipodi:docname="rainthunder-night.svg">
  <defs
     id="defs3773" />
  <sodipodi:namedview
     id="base"
     pagecolor="#ffffff"
     bordercolor="#666666"
     borderopacity="1.0"
     inkscape:pageopacity="0.0"
     inkscape:pageshadow="2"
     inkscape:zoom="4.9497475"
     inkscape:cx="22.06203"
     inkscape:cy="19.469181"
     inkscape:current-layer="layer1"
     showgrid="true"
     inkscape:grid-bbox="true"
     inkscape:document-units="px"
     inkscape:window-width="1233"
     inkscape:window-height="902"
     inkscape:window-x="571"
     inkscape:window-y="184"
     inkscape:window-maximized="0">
    <inkscape:grid
       type="xygrid"
       id="grid4294" />
  </sodipodi:namedview>
  <metadata
     id="metadata3776">
    <rdf:RDF>
      <cc:Work
         rdf:about="">
        <dc:format>image/svg+xml</dc:format>
        <dc:type
           rdf:resource="http://purl.org/dc/dcmitype/StillImage" />
        <dc:title />
      </cc:Work>
    </rdf:RDF>
  </metadata>
  <g
     id="layer1"
     inkscape:label="Layer 1"
     inkscape:groupmode="layer">
    <path
       sodipodi:nodetypes="czzzczzc"
       inkscape:connector-curvature="0"
       id="path5249"
       d="m 27.105534,2.5112709 c 0,0 -14.068426,-0.6032082 -20.7126303,7.0614845 C -0.25129824,17.237448 0.96208938,26.783087 3.6635972,31.836635 6.365106,36.890183 10.861146,42.618729 20.408256,42.49801 c 9.547109,-0.120717 20.09163,-12.153955 20.09163,-12.153955 0,0 -7.327087,3.929329 -14.989506,1.199239 C 17.847963,28.813204 14.318142,22.833535 16.092237,15.292788 17.866335,7.7522615 27.105534,2.5112709 27.105534,2.5112709 z"
       style="fill:#ebeebf;fill-opacity:1;stroke:#cdcd7e;stroke-width:1.00022757;stroke-linecap:butt;stroke-linejoin:bevel;stroke-miterlimit:4;stroke-opacity:1;stroke-dasharray:none"
       inkscape:export-xdpi="90"
       inkscape:export-ydpi="90" />
    <path
       style="fill:#e5e5e5;fill-opacity:1;stroke:#bcbcbc;stroke-width:1.00020254;stroke-miterlimit:4;stroke-opacity:1;stroke-dasharray:none"
       d="m 18.392365,40.499899 12.48146,0 c 8.468993,0 15.606282,-7.626591 15.626016,-15.037614 0.02004,-7.601948 -5.180075,-14.962184 -15.57795,-14.962184 -10.397875,0 -12.226235,9.027366 -12.226235,9.027366 C 11.08653,16.890058 5.1112224,22.933731 5.5198794,29.785686 5.9078024,36.289855 11.053731,40.499899 18.392365,40.499899 z"
       id="path2985"
       inkscape:connector-curvature="0"
       sodipodi:nodetypes="scszcss" />
    <path
       style="fill:#ffff14;fill-opacity:1;stroke:#c1c138;stroke-width:1.00002337;stroke-linejoin:round;stroke-miterlimit:4;stroke-opacity:1;stroke-dasharray:none"
       d="M 27.264942,17.500012 22.000012,32.5 26.940451,32.5 25.083228,47.499988 36.086255,26.5 l -4.88526,0 6.183046,-8.999988 z"
       id="path3754"
       inkscape:connector-curvature="0"
       sodipodi:nodetypes="cccccccc" />
    <path
       style="fill:#37b1df;fill-opacity:1;stroke:#1d88b1;stroke-width:0.99992615;stroke-miterlimit:4;stroke-opacity:1;stroke-dasharray:none"
       d="m 8.5820348,38.499963 c 0,0 -4.602209,3.418002 -4.033373,5.191331 0.568862,1.773611 2.846841,2.342416 4.35531,1.258987 1.5084782,-1.08371 -0.321937,-6.450318 -0.321937,-6.450318 z"
       id="path4432"
       inkscape:connector-curvature="0"
       sodipodi:nodetypes="czzc" />
    <path
       style="fill:#37b1df;fill-opacity:1;stroke:#1d88b1;stroke-width:0.99992615;stroke-miterlimit:4;stroke-opacity:1;stroke-dasharray:none"
       d="m 14.582041,26.499963 c 0,0 -4.6022102,3.418002 -4.03338,5.191331 0.56886,1.773611 2.84684,2.342416 4.35531,1.258987 1.50848,-1.08371 -0.32193,-6.450318 -0.32193,-6.450318 z"
       id="path4434"
       inkscape:connector-curvature="0"
       sodipodi:nodetypes="czzc" />
    <path
       style="fill:#37b1df;fill-opacity:1;stroke:#1d88b1;stroke-width:0.99992615;stroke-miterlimit:4;stroke-opacity:1;stroke-dasharray:none"
       d="m 18.582041,36.499963 c 0,0 -4.60221,3.418002 -4.03338,5.191331 0.56886,1.773611 2.84684,2.342416 4.35531,1.258987 1.50848,-1.08371 -0.32193,-6.450318 -0.32193,-6.450318 z"
       id="path4436"
       inkscape:connector-curvature="0"
       sodipodi:nodetypes="czzc" />
    <path
       sodipodi:nodetypes="czzc"
       inkscape:connector-curvature="0"
       id="path3771"
       d="m 42.582035,26.499963 c 0,0 -4.602209,3.418002 -4.033373,5.191331 0.568862,1.773611 2.846841,2.342416 4.35531,1.258987 1.508478,-1.08371 -0.321937,-6.450318 -0.321937,-6.450318 z"
       style="fill:#37b1df;fill-opacity:1;stroke:#1d88b1;stroke-width:0.99992615;stroke-miterlimit:4;stroke-opacity:1;stroke-dasharray:none" />
    <path
       style="fill:#37b1df;fill-opacity:1;stroke:#1d88b1;stroke-width:0.99992615;stroke-miterlimit:4;stroke-opacity:1;stroke-dasharray:none"
       d="m 36.582035,37.499963 c 0,0 -4.602209,3.418002 -4.033373,5.191331 0.568862,1.773611 2.846841,2.342416 4.35531,1.258987 1.508478,-1.08371 -0.321937,-6.450318 -0.321937,-6.450318 z"
       id="path3773"
       inkscape:connector-curvature="0"
       sodipodi:nodetypes="czzc" />
  </g>
</svg>
