<?xml version="1.0" encoding="UTF-8" standalone="no"?>
<!-- Created with Inkscape (http://www.inkscape.org/) -->

<svg
   xmlns:dc="http://purl.org/dc/elements/1.1/"
   xmlns:cc="http://creativecommons.org/ns#"
   xmlns:rdf="http://www.w3.org/1999/02/22-rdf-syntax-ns#"
   xmlns:svg="http://www.w3.org/2000/svg"
   xmlns="http://www.w3.org/2000/svg"
   xmlns:sodipodi="http://sodipodi.sourceforge.net/DTD/sodipodi-0.dtd"
   xmlns:inkscape="http://www.inkscape.org/namespaces/inkscape"
   width="48px"
   height="48px"
   id="svg3771"
   version="1.1"
   inkscape:version="0.48.3.1 r9886"
   sodipodi:docname="rainthunder.svg">
  <defs
     id="defs3773" />
  <sodipodi:namedview
     id="base"
     pagecolor="#ffffff"
     bordercolor="#666666"
     borderopacity="1.0"
     inkscape:pageopacity="0.0"
     inkscape:pageshadow="2"
     inkscape:zoom="4.9497475"
     inkscape:cx="21.253908"
     inkscape:cy="19.469181"
     inkscape:current-layer="layer1"
     showgrid="true"
     inkscape:grid-bbox="true"
     inkscape:document-units="px"
     inkscape:window-width="1233"
     inkscape:window-height="902"
     inkscape:window-x="232"
     inkscape:window-y="138"
     inkscape:window-maximized="0">
    <inkscape:grid
       type="xygrid"
       id="grid4294" />
  </sodipodi:namedview>
  <metadata
     id="metadata3776">
    <rdf:RDF>
      <cc:Work
         rdf:about="">
        <dc:format>image/svg+xml</dc:format>
        <dc:type
           rdf:resource="http://purl.org/dc/dcmitype/StillImage" />
        <dc:title></dc:title>
      </cc:Work>
    </rdf:RDF>
  </metadata>
  <g
     id="layer1"
     inkscape:label="Layer 1"
     inkscape:groupmode="layer">
    <path
       style="fill:#e5e5e5;fill-opacity:1;stroke:#bcbcbc;stroke-width:1.00020254;stroke-miterlimit:4;stroke-opacity:1;stroke-dasharray:none"
       d="m 16.392365,35.499899 12.48146,0 c 8.468993,0 15.606282,-7.626591 15.626016,-15.037614 0.02004,-7.601948 -5.180075,-14.9621837 -15.57795,-14.9621837 -10.397875,0 -12.226235,9.0273657 -12.226235,9.0273657 C 9.08653,11.890058 3.1112224,17.933731 3.5198794,24.785686 3.9078024,31.289855 9.053731,35.499899 16.392365,35.499899 z"
       id="path2985"
       inkscape:connector-curvature="0"
       sodipodi:nodetypes="scszcss" />
    <path
       style="fill:#ffff14;fill-opacity:1;stroke:#c1c138;stroke-width:1.00002337;stroke-linejoin:round;stroke-miterlimit:4;stroke-opacity:1;stroke-dasharray:none"
       d="M 24.764942,14.500012 19.500012,29.5 24.440451,29.5 22.583228,44.499988 33.586255,23.5 l -4.88526,0 6.183046,-8.999988 z"
       id="path3754"
       inkscape:connector-curvature="0"
       sodipodi:nodetypes="cccccccc" />
    <path
       style="fill:#37b1df;fill-opacity:1;stroke:#1d88b1;stroke-width:0.99992615;stroke-miterlimit:4;stroke-opacity:1;stroke-dasharray:none"
       d="m 6.5820348,33.499963 c 0,0 -4.602209,3.418002 -4.033373,5.191331 0.568862,1.773611 2.846841,2.342416 4.35531,1.258987 1.5084782,-1.08371 -0.321937,-6.450318 -0.321937,-6.450318 z"
       id="path4432"
       inkscape:connector-curvature="0"
       sodipodi:nodetypes="czzc" />
    <path
       style="fill:#37b1df;fill-opacity:1;stroke:#1d88b1;stroke-width:0.99992615;stroke-miterlimit:4;stroke-opacity:1;stroke-dasharray:none"
       d="m 12.582041,21.499963 c 0,0 -4.6022102,3.418002 -4.03338,5.191331 0.56886,1.773611 2.84684,2.342416 4.35531,1.258987 1.50848,-1.08371 -0.32193,-6.450318 -0.32193,-6.450318 z"
       id="path4434"
       inkscape:connector-curvature="0"
       sodipodi:nodetypes="czzc" />
    <path
       style="fill:#37b1df;fill-opacity:1;stroke:#1d88b1;stroke-width:0.99992615;stroke-miterlimit:4;stroke-opacity:1;stroke-dasharray:none"
       d="m 16.582041,31.499963 c 0,0 -4.60221,3.418002 -4.03338,5.191331 0.56886,1.773611 2.84684,2.342416 4.35531,1.258987 1.50848,-1.08371 -0.32193,-6.450318 -0.32193,-6.450318 z"
       id="path4436"
       inkscape:connector-curvature="0"
       sodipodi:nodetypes="czzc" />
    <path
       sodipodi:nodetypes="czzc"
       inkscape:connector-curvature="0"
       id="path3771"
       d="m 40.582035,21.499963 c 0,0 -4.602209,3.418002 -4.033373,5.191331 0.568862,1.773611 2.846841,2.342416 4.35531,1.258987 1.508478,-1.08371 -0.321937,-6.450318 -0.321937,-6.450318 z"
       style="fill:#37b1df;fill-opacity:1;stroke:#1d88b1;stroke-width:0.99992615;stroke-miterlimit:4;stroke-opacity:1;stroke-dasharray:none" />
    <path
       style="fill:#37b1df;fill-opacity:1;stroke:#1d88b1;stroke-width:0.99992615;stroke-miterlimit:4;stroke-opacity:1;stroke-dasharray:none"
       d="m 34.582035,32.499963 c 0,0 -4.602209,3.418002 -4.033373,5.191331 0.568862,1.773611 2.846841,2.342416 4.35531,1.258987 1.508478,-1.08371 -0.321937,-6.450318 -0.321937,-6.450318 z"
       id="path3773"
       inkscape:connector-curvature="0"
       sodipodi:nodetypes="czzc" />
  </g>
</svg>
